<svg xmlns="http://www.w3.org/2000/svg" id="e7527ed7-48ff-4533-afd7-18d02b51661d" data-name="Layer 1" width="21.4171" height="24.1932" viewBox="0 0 21.4171 24.1932"><path d="M15.6268,7.0532,4.9667,1.0378a2.7392,2.7392,0,0,0-2.7255.007l10.02,9.45Z" transform="translate(-0.457 -0.6782)"></path><path d="M.852,2.4629A2.7868,2.7868,0,0,0,.457,3.8875v17.71a2.7979,2.7979,0,0,0,.3682,1.39l10.34-10.69Z" transform="translate(-0.457 -0.6782)"></path><path d="M20.5212,9.6685,17.3765,7.8169l-3.5337,3.7693,4.3307,4.2621,2.3491-1.3834a2.8028,2.8028,0,0,0-.0014-4.7964Z" transform="translate(-0.457 -0.6782)"></path><path d="M2.2412,24.4486a2.6413,2.6413,0,0,0,1.4081.4228,2.63,2.63,0,0,0,1.3722-.3939l11.4977-6.9964-4.14-4.2106Z" transform="translate(-0.457 -0.6782)"></path></svg>