<svg xmlns="http://www.w3.org/2000/svg" id="ba3e286c-8f4f-424c-b585-b6375b531e49" data-name="Layer 1" width="19.2753" height="23.5589" viewBox="0 0 19.2753 23.5589"><path d="M19.4468,16.8665a4.0821,4.0821,0,0,1-2.2625-3.7728,4.3885,4.3885,0,0,1,2.089-3.6159l.5177-.3932-.36-.5441A5.8791,5.8791,0,0,0,14.499,6.0332h-.0067a7.6079,7.6079,0,0,0-2.8756.7,4.1208,4.1208,0,0,1-.954.3114,5.18,5.18,0,0,1-1.33-.3838,7.0656,7.0656,0,0,0-2.329-.5766c-1.7172,0-6.1727,1.3089-6.1727,7.2872,0,3.66,2.893,10.8462,6.39,10.8665h.0229a6.5164,6.5164,0,0,0,2.3195-.5447,4.3216,4.3216,0,0,1,1.3373-.3641,3.8263,3.8263,0,0,1,1.6889.4094,4.4959,4.4959,0,0,0,1.8974.4636c3.3274,0,5.6187-6.2051,5.6187-6.4941C20.1063,17.2651,19.7708,17.0628,19.4468,16.8665Z" transform="translate(-0.8311 -0.6787)"></path><path d="M15.82.6787c-2.6038,0-5.7546,2.7618-5.3088,5.348A5.14,5.14,0,0,0,15.82.6787Z" transform="translate(-0.8311 -0.6787)"></path></svg>