<svg xmlns="http://www.w3.org/2000/svg" width="59" height="64" fill="none"><g clip-path="url(#a)"><path fill-rule="evenodd" clip-rule="evenodd" d="M29.017 0c10.858 6.883 20.668 10.139 29.086 9.37 1.47 29.738-9.511 47.3-28.975 54.63C10.335 57.14-.782 40.333.042 8.918 9.925 9.435 19.621 7.299 29.017 0Zm-.027 24.368c1.674-1.745 2.846-3.255 5.427-3.551 4.843-.558 9.296 4.401 6.85 9.284-.696 1.39-2.113 3.042-3.68 4.666-1.72 1.78-3.625 3.526-4.96 4.85l-3.637 3.609-3.005-2.896c-3.616-3.483-9.512-7.865-9.706-13.296-.137-3.804 2.864-6.24 6.317-6.196 3.087.04 4.384 1.576 6.394 3.53Zm.046-19.414c9.005 5.707 17.648 8.916 24.63 8.277 1.219 24.662-8.397 39.736-24.535 45.814C13.543 53.357 3.815 38.911 4.499 12.858c9.045.473 17.334-2.308 24.537-7.904Z" fill="#0E1681"></path></g><defs><clipPath id="a"><path fill="#fff" d="M0 0h58.234v64H0z"></path></clipPath></defs></svg>