<svg xmlns="http://www.w3.org/2000/svg" width="64" height="57" fill="none"><g clip-path="url(#a)"><path d="m31.656 7.86.047-.048c3.62-3.843 6.6-7 12.682-7.703a17.526 17.526 0 0 1 9.865 1.792 18.23 18.23 0 0 1 6.49 5.427 16.339 16.339 0 0 1 3.156 7.87 15.682 15.682 0 0 1-.76 6.9h-3.324a12.927 12.927 0 0 0 .99-6.546 13.328 13.328 0 0 0-2.562-6.37 15.23 15.23 0 0 0-5.375-4.495 14.48 14.48 0 0 0-8.125-1.479c-4.954.568-7.579 3.354-10.771 6.735l-1.157 1.218a1.562 1.562 0 0 1-2.197.032l-1.12-1.094c-3.917-3.854-6.87-6.77-12.969-6.833h-.76A13.682 13.682 0 0 0 6.91 6.792a12.047 12.047 0 0 0-3.786 8.833v.73a18.588 18.588 0 0 0 1.177 5.744H1.005A21.193 21.193 0 0 1 0 16.453v-.875A15.067 15.067 0 0 1 4.77 4.526 16.724 16.724 0 0 1 15.657.166h.906c7.35.094 10.683 3.36 15.105 7.704l-.01-.01ZM1.042 26.9h14.89l3.38-5.463 5.964 8.65L31.25 17.99l6.443 12.406 3.052-3.125h22.224v3.125H42.057l-5.135 5.27-5.61-10.775-5.588 11.333-6.25-9.099-1.792 2.901H1.042v-3.125Zm52.307 8.745-.151.161c-2.604 2.688-5.354 5.328-7.813 7.703a330.964 330.964 0 0 0-3.947 3.818l-8.626 8.552a1.562 1.562 0 0 1-2.177 0l-7.14-6.844c-1.302-1.25-2.813-2.63-4.386-4.062-3.156-2.88-6.557-5.98-9.599-9.328h4.292c2.417 2.474 4.985 4.818 7.406 7.02a178.253 178.253 0 0 1 4.443 4.126l6.031 5.812 7.542-7.484a322.39 322.39 0 0 1 3.98-3.854c1.838-1.76 3.832-3.646 5.78-5.62h4.365Z" fill="#0E1681"></path></g><defs><clipPath id="a"><path fill="#fff" d="M0 0h64v56.333H0z"></path></clipPath></defs></svg>