<svg xmlns="http://www.w3.org/2000/svg" width="64" height="64" fill="none"><g clip-path="url(#a)"><path d="M34.12 10.042a19.012 19.012 0 0 1 13.477 5.585l.008.008a19.01 19.01 0 0 1 5.582 13.475 19.014 19.014 0 0 1-5.585 13.478l-.007.007a19.07 19.07 0 0 1-8.191 4.84 9.246 9.246 0 0 0-.605-2.615 16.347 16.347 0 0 0 6.907-4.119 16.33 16.33 0 0 0 4.8-11.591c0-4.528-1.832-8.626-4.798-11.59a16.331 16.331 0 0 0-11.588-4.797 16.33 16.33 0 0 0-11.587 4.794 16.335 16.335 0 0 0-4.642 9.303 16.477 16.477 0 0 0-2.835 1.903 19.012 19.012 0 0 1 5.581-13.09l.008-.01a19.01 19.01 0 0 1 13.475-5.58Zm5.885 18.61a3.234 3.234 0 1 1 .002 6.47 3.234 3.234 0 0 1-.002-6.47Zm-9.108-9.54a4.196 4.196 0 1 1 0 8.392 4.196 4.196 0 0 1 0-8.393Zm-3.966 13.92c2.272 2.273 1.552 6.677-1.61 9.84-2.603 2.602-6.052 3.55-8.457 2.532-1.953.204-3.622.959-4.517 1.994-3.753 4.346.178 6.488-4.404 10.763-1.547 1.443-3.572 2.426-5.58 2.535A8.909 8.909 0 0 1 .02 60.52c5.156-.854 7.312-3.032 8.2-5.33 1.29-3.333-.428-5.28 2.079-8.411 1.202-1.5 2.68-2.594 4.398-3.382-1.233-2.412-.318-6.041 2.396-8.756 3.162-3.161 7.565-3.88 9.837-1.608Zm4.691 14.134c-1.421-1.42-4.177-.97-6.154 1.008-1.63 1.629-2.221 3.785-1.587 5.289-.126 1.222-.598 2.266-1.247 2.826-2.718 2.348-4.058-.111-6.731 2.755-.902.969-1.517 2.234-1.587 3.49-.025.487.009.976.111 1.466.534-3.224 1.898-4.573 3.333-5.13 2.086-.806 3.304.27 5.263-1.3.938-.75 1.622-1.676 2.117-2.752 1.508.772 3.777.199 5.474-1.496 1.98-1.979 2.429-4.735 1.008-6.156ZM34.12 0c8.037 0 15.316 3.26 20.583 8.526C59.97 13.794 63.23 21.07 63.23 29.11c0 8.037-3.26 15.316-8.527 20.583-5.267 5.268-12.546 8.527-20.583 8.527l-.263-.002c.691-.458 1.35-.992 1.958-1.6l.025-.025c.382-.38.734-.783 1.058-1.199a26.354 26.354 0 0 0 15.91-7.597 26.343 26.343 0 0 0 7.74-18.687 26.348 26.348 0 0 0-7.74-18.688 26.348 26.348 0 0 0-18.688-7.74 26.348 26.348 0 0 0-18.688 7.74 26.353 26.353 0 0 0-7.74 18.688c0 3.314.61 6.487 1.725 9.411a12.9 12.9 0 0 0-.103.997 17.12 17.12 0 0 0-1.694 1.654A29.01 29.01 0 0 1 5.01 29.11c0-8.039 3.259-15.316 8.527-20.584C18.803 3.259 26.082 0 34.12 0Z" fill="#0E1681"></path></g><defs><clipPath id="a"><path fill="#fff" d="M0 0h63.25v64H0z"></path></clipPath></defs></svg>