<svg xmlns="http://www.w3.org/2000/svg" width="43" height="64" fill="none"><g clip-path="url(#a)"><path fill-rule="evenodd" clip-rule="evenodd" d="M15.781 1.74c4.01-2.704 8.531-2.105 12.281.755a9.949 9.949 0 0 1 2.495 2.802c.568.958 1.563 2.911-.297 3.213-.734.115-2.015-.88-3.005-1.203-1.26-.399-2.556-.671-3.87-.812a18.948 18.948 0 0 0-6.838.52c-1.102.3-2.178.687-3.219 1.157-.48.224-1.469.875-1.734.036-.625-1.958 2.755-5.5 4.187-6.468Zm19.386 49.656-.047.094a3.317 3.317 0 0 1 1.432 4.354l.099.047a3.317 3.317 0 0 1 4.354-1.433l.047-.093A3.333 3.333 0 0 1 39.615 50l-.094-.047a3.312 3.312 0 0 1-4.354 1.438v.005Zm-8.636 8.61v.051a1.813 1.813 0 0 1 .787 2.38l.052.027a1.813 1.813 0 0 1 2.38-.787v-.052a1.813 1.813 0 0 1-.787-2.38h-.052a1.813 1.813 0 0 1-2.38.786v-.026ZM9.833 58.686l.058.115a3.958 3.958 0 0 0-1.844 5.146L7.932 64a3.698 3.698 0 0 0-2.203-1.953 3.702 3.702 0 0 0-2.937.114l-.058-.114a3.708 3.708 0 0 0 1.953-2.203 3.72 3.72 0 0 0-.109-2.943l.115-.052a3.672 3.672 0 0 0 2.203 1.948 3.682 3.682 0 0 0 2.937-.11Zm-3.156-8.77.042.093a3.318 3.318 0 0 0-1.563 4.318l-.094.047a3.126 3.126 0 0 0-1.854-1.64 3.123 3.123 0 0 0-2.463.093l-.047-.094a3.125 3.125 0 0 0 1.656-1.849 3.078 3.078 0 0 0-.094-2.447l.1-.047A3.125 3.125 0 0 0 4.207 50a3.125 3.125 0 0 0 2.47-.094v.01Zm8.427 8.823.026.052a1.724 1.724 0 0 0-.896 1.01 1.704 1.704 0 0 0 .052 1.35h-.052a1.724 1.724 0 0 0-1.01-.897 1.702 1.702 0 0 0-1.349.052l-.026-.052a1.812 1.812 0 0 0 .844-2.36h.052a1.812 1.812 0 0 0 2.36.845Zm3.698-10.771a.588.588 0 0 1 .365 0 .614.614 0 0 1 .416.385c.339.662 2.959.714 3.448-.031a.61.61 0 0 1 1.12.474c-.88 1.729-4.99 1.687-5.73-.037a.61.61 0 0 1 .37-.776l.011-.015Zm8.87-9.948-.703.87a.604.604 0 0 1-.854.099.614.614 0 0 1-.073-.87l.468-.62a.609.609 0 0 1 .475-1.09.6.6 0 0 1 .218.095c.639.342 1.36.5 2.083.459.752.01 1.493-.181 2.146-.553a.604.604 0 0 1 .926.405.61.61 0 0 1-.275.621l-.057.037.547.604a.61.61 0 0 1-.906.818l-.839-.927c-.287.075-.58.131-.875.166v.855a.614.614 0 1 1-1.224 0v-.834a5.757 5.757 0 0 1-1.041-.161l-.016.026Zm-16.026 0-.709.854a.609.609 0 0 1-1.012-.087.605.605 0 0 1 .06-.673l.468-.584a.621.621 0 0 1 .677-1.041 3.87 3.87 0 0 0 2.047.49.764.764 0 0 1 .162 0h.13a4.355 4.355 0 0 0 2.031-.522.615.615 0 0 1 .61 1.042h-.037l.495.52a.615.615 0 0 1-.907.824l-.807-.823a7.48 7.48 0 0 1-.916.166v.823a.615.615 0 0 1-1.225 0v-.828a4.366 4.366 0 0 1-1.067-.156v-.005Zm15.437-4.031a.614.614 0 0 1-.854-.136.603.603 0 0 1 .146-.844 6.099 6.099 0 0 1 3.52-1.24 6.251 6.251 0 0 1 3.6 1.23.61.61 0 0 1-.682.995 5.026 5.026 0 0 0-2.902-1.01 4.76 4.76 0 0 0-2.828 1.005Zm-17.15 0a.614.614 0 0 1-.855-.136.604.604 0 0 1 .146-.844 6.11 6.11 0 0 1 3.52-1.24 6.25 6.25 0 0 1 3.6 1.23.608.608 0 0 1 .004 1.03.61.61 0 0 1-.692-.025 5.047 5.047 0 0 0-2.9-1.01A4.812 4.812 0 0 0 9.926 34l.005-.01Zm-7.709-3.021a.912.912 0 0 1 .557-.14 23.526 23.526 0 0 1-.213-5.366c.187-5.109 1.479-9.192 5.51-12.734 6.068-5.344 18.1-5.812 24.792-1.208a14.95 14.95 0 0 1 2.745 2.442c2.713 3.126 5.135 9.954 5.083 14.172a9.896 9.896 0 0 1-.52 2.98c0 .099-.037.208-.069.328a5.676 5.676 0 0 1 1.735 1.672c.633.949.937 2.08.864 3.218a7.53 7.53 0 0 1-1.13 3.427 12.422 12.422 0 0 1-3.677 3.74 34.334 34.334 0 0 1-5.849 9.375 18.006 18.006 0 0 1-6.922 4.984 11.036 11.036 0 0 1-8.333-.187 16.255 16.255 0 0 1-4.584-3A22.45 22.45 0 0 1 8.334 50a37.607 37.607 0 0 1-2.911-5.73 7.63 7.63 0 0 1-1.1-.421 6.928 6.928 0 0 1-1.358-.818A7.386 7.386 0 0 1 .52 39.427 10.938 10.938 0 0 1 .104 34.6a5.9 5.9 0 0 1 .672-2.12 4.374 4.374 0 0 1 1.448-1.51Zm1.005 1.562a2.39 2.39 0 0 0-.818.87 3.89 3.89 0 0 0-.453 1.443 8.99 8.99 0 0 0 .323 4.005 5.49 5.49 0 0 0 1.839 2.688c.326.238.675.444 1.041.614.39.182.796.325 1.214.427a.928.928 0 0 1 .64.552 36.762 36.762 0 0 0 2.88 5.875 20.604 20.604 0 0 0 3.522 4.292 14.582 14.582 0 0 0 4.062 2.672 9.24 9.24 0 0 0 6.985.156 16.072 16.072 0 0 0 6.187-4.495 32.29 32.29 0 0 0 5.63-9.088.964.964 0 0 1 .365-.433 10.75 10.75 0 0 0 3.333-3.297 5.73 5.73 0 0 0 .87-2.572 3.427 3.427 0 0 0-.52-2.084 3.645 3.645 0 0 0-.84-.89c-4.609 10.474-3.37 1.817-3.37-3.724-4.348-2.026-7.176-6.443-8.619-13.073-1.724 12.625-17.23 12.078-21.125 14.38 0 4.036 1.318 10.135-1.995 4.198a15.562 15.562 0 0 1-1.15-2.531v.015Z" fill="#0E1681"></path></g><defs><clipPath id="a"><path fill="#fff" d="M0 0h42.703v64H0z"></path></clipPath></defs></svg>