<svg xmlns="http://www.w3.org/2000/svg" width="64" height="56" fill="none"><g clip-path="url(#a)"><path d="M26.213 22.495a.609.609 0 0 1 .86-.115c.27.203.323.589.114.86-.583.76-.854 1.505-.87 2.229-.015.734.225 1.479.652 2.229a.612.612 0 0 1-1.063.604c-.531-.937-.828-1.885-.807-2.86.02-.984.364-1.968 1.114-2.947ZM3.99 21.713l2.072 2.579L0 26.26l9.594.443-1.745-2.49 6.188-1.77-10.047-.73Zm7.026-11.76.515 3.432-6.588-1.635 8.422 5.807-.172-3.234 6.557 1.828-8.734-6.198ZM8.328 31.495l3.339 1.224-4.72 5.125 9.37-4.719-2.994-1.438 4.958-4.88-9.953 4.688ZM49.781.047a.924.924 0 0 1 1.162.588.924.924 0 0 1-.589 1.162l-.562.182c-8.344 2.708-15.974 5.188-20.63 12.844a7.502 7.502 0 0 1-1.829 2.052c-.671.531-1.291.875-1.885 1.203-.948.526-1.823 1.01-2.589 2.235-.541.87-.823 1.89-.854 3.052-.026 1.224.224 2.614.745 4.161.958 2.839 3.854 6.734 7.401 10.745 5.354 6.062 12.151 12.333 16.042 15.693a.917.917 0 0 1 .093 1.296.917.917 0 0 1-1.296.094c-3.928-3.39-10.787-9.724-16.214-15.864-3.688-4.172-6.719-8.282-7.766-11.38-.588-1.745-.87-3.34-.838-4.782.036-1.505.406-2.833 1.125-3.99 1.015-1.63 2.094-2.223 3.26-2.87.537-.296 1.094-.603 1.64-1.036A6.174 6.174 0 0 0 27.6 13.87C32.604 5.625 40.547 3.047 49.224.224l.557-.177Zm12.782 18.541a.925.925 0 0 1 1.28.24.925.925 0 0 1-.239 1.281 42.455 42.455 0 0 1-6.094 3.47 45.911 45.911 0 0 1-6.244 2.348c-3.36.995-5.355.912-8.177.802-.48-.02-.98-.041-1.454-.052-.302-.01-.588.01-.838.052a1.845 1.845 0 0 0-.51.146c-.011.005-.027.016-.058.031-.062.037-.088.058-.088.068-.01.068.026.177.093.313l.068.114c.23.375.818.818 1.48 1.313.9.677 1.91 1.437 2.656 2.479 1.302 1.823 3.348 6.12 5.421 10.458 2 4.193 4.021 8.432 5.313 10.349a.923.923 0 1 1-1.531 1.031c-1.375-2.036-3.422-6.333-5.453-10.588-2.042-4.276-4.058-8.516-5.256-10.188-.578-.812-1.468-1.479-2.26-2.073-.813-.61-1.537-1.156-1.948-1.828a3.144 3.144 0 0 1-.13-.24c-.24-.463-.35-.953-.276-1.432.083-.536.375-1.01.948-1.36.047-.025.104-.062.177-.098a3.68 3.68 0 0 1 1.052-.323c.354-.057.76-.083 1.182-.073.563.016 1.026.037 1.474.052 2.646.104 4.51.183 7.583-.729a42.727 42.727 0 0 0 5.99-2.255c1.984-.901 3.927-2 5.839-3.308Zm-28.6.1a.923.923 0 0 1-1.265.307.923.923 0 0 1-.307-1.266c2.005-3.265 4.677-5.89 8.015-7.875 3.318-1.969 7.287-3.297 11.912-3.995a.926.926 0 0 1 1.047.776.926.926 0 0 1-.776 1.047c-4.386.657-8.13 1.912-11.24 3.755-3.083 1.829-5.542 4.245-7.385 7.25Z" fill="#0E1681"></path></g><defs><clipPath id="a"><path fill="#fff" d="M0 0h64v55.583H0z"></path></clipPath></defs></svg>