<svg xmlns="http://www.w3.org/2000/svg" width="48" height="48" fill="none"><path d="M24 0a23.928 23.928 0 0 1 16.97 7.03A23.927 23.927 0 0 1 48 24a23.928 23.928 0 0 1-7.03 16.97A23.924 23.924 0 0 1 24 48a23.923 23.923 0 0 1-16.97-7.03A23.928 23.928 0 0 1 0 24 23.927 23.927 0 0 1 7.03 7.03 23.927 23.927 0 0 1 24 0Zm-8.393 22.216c1.687.971 2.784 1.78 4.088 3.22 3.392-5.456 7.072-8.483 11.857-12.775l.467-.18h5.236c-7.02 7.8-12.463 14.227-17.34 23.633-2.536-5.43-4.799-9.172-9.858-12.644l5.55-1.254Zm22.96-12.784A20.541 20.541 0 0 0 24 3.398c-5.69 0-10.84 2.307-14.568 6.034A20.54 20.54 0 0 0 3.398 24c0 5.689 2.307 10.84 6.034 14.568A20.538 20.538 0 0 0 24 44.602c5.689 0 10.84-2.307 14.568-6.034A20.541 20.541 0 0 0 44.602 24a20.54 20.54 0 0 0-6.034-14.568Z" fill="#0E1681"></path></svg>