<svg xmlns="http://www.w3.org/2000/svg" width="43" height="48" fill="none"><g clip-path="url(#a)"><path fill-rule="evenodd" clip-rule="evenodd" d="M31.537 23.92h6.033v-1.167c-.345-1.278-.894-2.144-1.606-2.67-.711-.526-1.634-.751-2.716-.744l-24.741.006a1.102 1.102 0 1 1 0-2.205l24.712.003c1.555-.015 2.927.34 4.054 1.175.1.075.2.153.297.236v-.663c0-1.029-.425-1.97-1.108-2.653a3.725 3.725 0 0 0-2.652-1.106h-.796l-.102-.005-.389 1.458H29.85l1.586-5.949a2.508 2.508 0 0 1-1.77-3.066l-8.821-2.363a2.508 2.508 0 0 1-3.065 1.771l-2.59 9.607h-2.757L16.628 0l18.718 5.015-1.846 6.911h.31a5.95 5.95 0 0 1 4.209 1.755 5.935 5.935 0 0 1 1.755 4.21v6.092a3.217 3.217 0 0 1 1.647.883c.582.582.945 1.388.945 2.275v7.25a3.35 3.35 0 0 1-.986 2.374 3.36 3.36 0 0 1-1.606.897v4.373a5.95 5.95 0 0 1-1.754 4.211l-.07.064A5.949 5.949 0 0 1 33.81 48H5.964a5.954 5.954 0 0 1-4.212-1.753A5.947 5.947 0 0 1 0 42.035V17.891c0-1.642.671-3.133 1.75-4.213a5.949 5.949 0 0 1 4.214-1.752h3.48l.014.001 2.77-10.287 2.642.708-3.63 13.237H8.473l.392-1.453H5.964a3.752 3.752 0 0 0-2.654 1.105 3.75 3.75 0 0 0-1.105 2.654v24.144c0 1.032.424 1.971 1.106 2.653a3.747 3.747 0 0 0 2.653 1.107H33.81a3.74 3.74 0 0 0 2.6-1.054l.05-.054a3.747 3.747 0 0 0 1.11-2.652v-4.284h-6.033a6.754 6.754 0 0 1-4.782-1.987l-.115-.127a6.748 6.748 0 0 1-1.873-4.657v-.29c0-1.855.762-3.546 1.988-4.775l.012-.012a6.75 6.75 0 0 1 4.77-1.982Zm-8.97-8.722a3.023 3.023 0 1 0 1.563-5.84 3.023 3.023 0 0 0-1.564 5.84ZM33.957 28.97l.006.005a2.642 2.642 0 0 1-.002 3.725l-.005.005a2.643 2.643 0 0 1-3.725-.002l-.005-.004a2.643 2.643 0 0 1 .002-3.726l.005-.005a2.641 2.641 0 0 1 3.724.002Z" fill="#0E1681"></path></g><defs><clipPath id="a"><path fill="#fff" d="M0 0h42.366v48H0z"></path></clipPath></defs></svg>