<svg xmlns="http://www.w3.org/2000/svg" width="48" height="48" fill="none"><path d="M19.762 0h8.476c1.172 0 2.235.477 3.004 1.246a4.237 4.237 0 0 1 1.246 3.004v11.262H43.75c1.172 0 2.234.476 3.004 1.246A4.237 4.237 0 0 1 48 19.762v8.476a4.237 4.237 0 0 1-1.246 3.004 4.237 4.237 0 0 1-3.004 1.246H32.488V43.75a4.237 4.237 0 0 1-1.246 3.004A4.237 4.237 0 0 1 28.238 48h-8.476a4.237 4.237 0 0 1-3.004-1.246 4.237 4.237 0 0 1-1.246-3.004V32.488H4.25a4.237 4.237 0 0 1-3.004-1.246A4.244 4.244 0 0 1 0 28.238v-8.476c0-1.172.477-2.235 1.246-3.004a4.237 4.237 0 0 1 3.004-1.246h11.262V4.25c0-1.172.476-2.234 1.246-3.004A4.244 4.244 0 0 1 19.762 0Zm8.476 2.746h-8.476c-.414 0-.79.168-1.063.445a1.5 1.5 0 0 0-.445 1.063v12.633a1.37 1.37 0 0 1-1.371 1.37H4.25c-.414 0-.79.169-1.063.442a1.5 1.5 0 0 0-.445 1.063v8.476c0 .414.168.79.446 1.063a1.5 1.5 0 0 0 1.062.445h12.633a1.37 1.37 0 0 1 1.37 1.371V43.75c0 .414.169.79.446 1.063a1.5 1.5 0 0 0 1.063.445h8.476c.414 0 .79-.168 1.063-.446.273-.273.441-.648.441-1.062V31.117a1.37 1.37 0 0 1 1.371-1.37H43.75c.414 0 .79-.169 1.063-.446a1.5 1.5 0 0 0 .445-1.063v-8.476c0-.414-.168-.79-.446-1.063a1.497 1.497 0 0 0-1.062-.441H31.117a1.37 1.37 0 0 1-1.37-1.371V4.25c0-.414-.169-.79-.442-1.063a1.513 1.513 0 0 0-1.067-.44Z" fill="#0E1681"></path></svg>