<svg xmlns="http://www.w3.org/2000/svg" width="48" height="48" fill="none"><path d="M11.714 5.162a1.54 1.54 0 0 1 2.662-1.542l1.976 3.42a1.54 1.54 0 0 1-2.662 1.542l-1.976-3.42ZM24 10.234a13.72 13.72 0 0 1 9.734 4.032A13.732 13.732 0 0 1 37.766 24a13.72 13.72 0 0 1-4.032 9.734A13.72 13.72 0 0 1 24 37.766a13.72 13.72 0 0 1-9.734-4.032A13.728 13.728 0 0 1 10.234 24a13.72 13.72 0 0 1 4.032-9.734A13.732 13.732 0 0 1 24 10.234Zm7.654 6.112A10.79 10.79 0 0 0 24 13.176a10.79 10.79 0 0 0-7.654 3.17A10.79 10.79 0 0 0 13.176 24a10.79 10.79 0 0 0 3.17 7.654A10.79 10.79 0 0 0 24 34.824a10.79 10.79 0 0 0 7.654-3.17A10.79 10.79 0 0 0 34.824 24a10.79 10.79 0 0 0-3.17-7.654ZM22.776 1.542a1.542 1.542 0 1 1 3.084 0v3.95a1.542 1.542 0 1 1-3.084 0v-3.95Zm11.398 2.402a1.536 1.536 0 0 1 2.662 1.53l-1.976 3.42a1.536 1.536 0 0 1-2.662-1.53l1.976-3.42Zm8.664 7.77a1.54 1.54 0 0 1 1.542 2.662l-3.42 1.976a1.54 1.54 0 0 1-1.542-2.662l3.42-1.976Zm3.62 11.062a1.542 1.542 0 1 1 0 3.084h-3.95a1.542 1.542 0 1 1 0-3.084h3.95Zm-2.402 11.398a1.536 1.536 0 0 1-1.53 2.662l-3.42-1.976a1.536 1.536 0 0 1 1.53-2.662l3.42 1.976Zm-7.77 8.664a1.54 1.54 0 0 1-2.662 1.542l-1.976-3.42a1.54 1.54 0 0 1 2.662-1.542l1.976 3.42Zm-11.062 3.62a1.542 1.542 0 1 1-3.084 0v-3.95a1.542 1.542 0 1 1 3.084 0v3.95Zm-11.398-2.402a1.536 1.536 0 0 1-2.662-1.53l1.976-3.42a1.536 1.536 0 0 1 2.662 1.53l-1.976 3.42Zm-8.664-7.77a1.54 1.54 0 0 1-1.542-2.662l3.42-1.976a1.54 1.54 0 0 1 1.542 2.662l-3.42 1.976Zm-3.62-11.062a1.542 1.542 0 1 1 0-3.084h3.95a1.542 1.542 0 1 1 0 3.084h-3.95Zm2.402-11.398a1.536 1.536 0 0 1 1.53-2.662l3.42 1.976a1.536 1.536 0 0 1-1.53 2.662l-3.42-1.976Z" fill="#0E1681"></path></svg>