<svg xmlns="http://www.w3.org/2000/svg" xmlns:xlink="http://www.w3.org/1999/xlink" id="Layer_1" x="0px" y="0px" width="160px" height="60px" viewBox="0 0 160 60" xml:space="preserve"><g>	<path fill="#00665E" d="M34.39,20.479l-1.706-1.292l0.131-3.913c0.002-0.232,0.035-0.267,0.138-0.435  c0.101-0.165,1.902-2.312,0.24-5.053c-0.332-0.475-0.53-1.22,0.48-1.376c1.013-0.161,4.683-0.438,6.166,3.65  c0.36,1.118,0.678,3.749-1.996,5.787C36.522,18.912,34.39,20.479,34.39,20.479"></path>	<path fill="#00665E" d="M25.925,9.796c0.49-0.45,0.684-1.477-0.764-1.454c-1.01,0.025-5.589,0.064-5.929,5.246  c-0.108,1.661,0.379,3.544,4.828,6.577c0.872,0.682,3.952,3.029,6.392,4.969c0.702,0.75,2.074,1.77,1.787,4.265  c-0.072,0.807-0.049,1.951,1.135,1.185c1.317-0.8,5.115-4.374,0.944-9.328c-0.937-0.716-5.922-4.53-7.027-5.279  c-0.9-0.92-2.208-1.973-1.952-4.397C25.41,11.006,25.75,9.96,25.925,9.796"></path>	<path fill="#00665E" d="M26.642,22.95c0.034-0.265-0.229-0.538-0.814-0.343c-1.088,0.362-4.546,4.956-1.139,8.39  c0.867,0.743,3.011,2.344,4.817,3.706c0.834,0.545,2.847,1.639,2.284,4.672c-0.035,0.337,0.332,0.946,0.975,0.443  c1.117-0.796,4.539-3.739,0.867-7.546c-0.904-0.951-5.104-3.889-5.682-4.34c-0.3-0.234-1.204-1.88-1.263-3.199  C26.688,24.502,26.607,23.254,26.642,22.95"></path>	<path fill="#00665E" d="M27.024,33.505c0.001-0.241-0.145-0.671-0.84-0.206c-0.947,0.633-2.818,3.144-1.457,5.884  c0.627,1.492,3.876,3.266,5.885,4.866c0.267,0.339,1.198,1.493,0.852,2.808c-0.07,0.303-0.137,1.223,0.934,0.509  c1.379-0.924,3.159-3.208,0.957-5.854c-0.6-0.578-3.844-3.067-4.715-3.717c-0.767-0.608-1.403-1.255-1.526-2.909  C27.048,34.48,27.022,33.74,27.024,33.505"></path>	<path fill="#00665E" d="M27.429,42.575c0.007-0.205-0.263-1.285-1.111-0.31c-0.508,0.636-2.717,3.351,0.022,5.998  c0.803,0.684,4.495,3.193,4.682,3.575c0.232,0.475,0.365,0.846,0.116,2.699c-0.003,0.37,0.089,0.828,0.637,0.41  c0.608-0.465,2.572-1.936,1.383-5.081c-0.399-0.606-1.399-1.697-2.905-2.751c-0.972-0.783-2.278-1.471-2.67-3.022  C27.521,43.725,27.387,43.285,27.429,42.575"></path>	<path fill="#00665E" d="M27.809,50.063c-0.027,0.266,0.2,4.655,0.2,4.655c0.031,0.234-0.172,0.674-0.643,0.361  c-0.468-0.308-1.55-0.813-1.695-2.944c-0.064-0.954,0.655-2.05,1.161-2.383C27.343,49.42,27.843,49.694,27.809,50.063"></path>	<path fill="#939598" d="M52.666,25.575c0-11.548-8.397-21.131-19.416-22.975l-0.009,0.63c9.387,1.812,16.476,10.071,16.476,19.987  c0,9.395-6.366,17.3-15.015,19.646c0.115,0.313,0.228,0.752,0.228,1.264c0,0.426-0.078,0.903-0.303,1.397  c-0.537,1.19-1.701,2.096-2.415,2.616c0.227,0.189,0.452,0.38,0.566,0.475C44.03,46.969,52.666,37.281,52.666,25.575"></path>	<path fill="#939598" d="M25.73,48.582C14.784,46.673,6.494,37.064,6.494,25.575c0-11.548,8.397-21.13,19.416-22.975l0.008,0.63  C16.53,5.041,9.442,13.301,9.442,23.216c0,9.395,6.93,17.458,15.581,19.804c-0.345,0.679-0.736,1.724-0.686,2.48  C24.447,47.103,25.141,47.987,25.73,48.582"></path>	<path fill="#939598" d="M31.884,18.469l-4.888-3.675l-0.113-2.765c-0.096-0.474,0.443-0.909,0.747-0.906  c0.307,0.004,3.904,0.03,3.904,0.03c0.302,0.002,0.606,0.174,0.598,0.917C32.129,12.81,31.884,18.469,31.884,18.469"></path>	<path fill="#939598" d="M27.368,23.597c0,0.202-0.423,2.761,1.751,4.296c0.468,0.373,2.574,1.943,2.574,1.943  c0.004-0.341,0.19-2.631-0.947-3.552C30.178,25.807,27.368,23.597,27.368,23.597"></path>	<path fill="#939598" d="M27.693,34.218c-0.002,0.403-0.084,2.123,1.456,3.045c0.268,0.237,1.874,1.396,2.041,1.601  c0.038-0.372,0.317-1.817-0.552-2.496C30.134,35.985,27.693,34.185,27.693,34.218"></path>	<path fill="#939598" d="M28.061,42.855c0,0.165-0.078,1.68,1.161,2.667c0.167,0.137,1.403,1.055,1.739,1.261  c0.039-0.472,0.146-1.514-0.724-2.232C29.803,44.11,28.061,42.855,28.061,42.855"></path>	<path fill="#939598" d="M28.411,50.506l2.338,1.714c0,0,0,0.46-0.037,0.697c-0.01,0.073-0.062,3.877-0.062,3.877  c-0.004,0.339-0.477,0.736-1.048,0.731c-0.574-0.005-1.042-0.342-1.041-0.613C28.565,56.645,28.411,50.506,28.411,50.506"></path>	<path fill="#00665E" d="M34.39,20.479l-1.706-1.292l0.131-3.913c0.002-0.232,0.035-0.267,0.138-0.435  c0.101-0.165,1.902-2.312,0.24-5.053c-0.332-0.475-0.53-1.22,0.48-1.376c1.013-0.161,4.683-0.438,6.166,3.65  c0.36,1.118,0.678,3.749-1.996,5.787C36.522,18.912,34.39,20.479,34.39,20.479"></path>	<path fill="#00665E" d="M25.925,9.796c0.49-0.45,0.684-1.477-0.764-1.454c-1.01,0.025-5.589,0.064-5.929,5.246  c-0.108,1.661,0.379,3.544,4.828,6.577c0.872,0.682,3.952,3.029,6.392,4.969c0.702,0.75,2.074,1.77,1.787,4.265  c-0.072,0.807-0.049,1.951,1.135,1.185c1.317-0.8,5.115-4.374,0.944-9.328c-0.937-0.716-5.922-4.53-7.027-5.279  c-0.9-0.92-2.208-1.973-1.952-4.397C25.41,11.006,25.75,9.96,25.925,9.796"></path>	<path fill="#00665E" d="M26.642,22.95c0.034-0.265-0.229-0.538-0.814-0.343c-1.088,0.362-4.546,4.956-1.139,8.39  c0.867,0.743,3.011,2.344,4.817,3.706c0.834,0.545,2.847,1.639,2.284,4.672c-0.035,0.337,0.332,0.946,0.975,0.443  c1.117-0.796,4.539-3.739,0.867-7.546c-0.904-0.951-5.104-3.889-5.682-4.34c-0.3-0.234-1.204-1.88-1.263-3.199  C26.688,24.502,26.607,23.254,26.642,22.95"></path>	<path fill="#00665E" d="M27.024,33.505c0.001-0.241-0.145-0.671-0.84-0.206c-0.947,0.633-2.818,3.144-1.457,5.884  c0.627,1.492,3.876,3.266,5.885,4.866c0.267,0.339,1.198,1.493,0.852,2.808c-0.07,0.303-0.137,1.223,0.934,0.509  c1.379-0.924,3.159-3.208,0.957-5.854c-0.6-0.578-3.844-3.067-4.715-3.717c-0.767-0.608-1.403-1.255-1.526-2.909  C27.048,34.48,27.022,33.74,27.024,33.505"></path>	<path fill="#00665E" d="M27.429,42.575c0.007-0.205-0.263-1.285-1.111-0.31c-0.508,0.636-2.717,3.351,0.022,5.998  c0.803,0.684,4.495,3.193,4.682,3.575c0.232,0.475,0.365,0.846,0.116,2.699c-0.003,0.37,0.089,0.828,0.637,0.41  c0.608-0.465,2.572-1.936,1.383-5.081c-0.399-0.606-1.399-1.697-2.905-2.751c-0.972-0.783-2.278-1.471-2.67-3.022  C27.521,43.725,27.387,43.285,27.429,42.575"></path>	<path fill="#00665E" d="M27.809,50.063c-0.027,0.266,0.2,4.655,0.2,4.655c0.031,0.234-0.172,0.674-0.643,0.361  c-0.468-0.308-1.55-0.813-1.695-2.944c-0.064-0.954,0.655-2.05,1.161-2.383C27.343,49.42,27.843,49.694,27.809,50.063"></path>	<path fill="#929497" d="M52.666,25.575c0-11.548-8.397-21.131-19.416-22.975l-0.009,0.63c9.387,1.812,16.476,10.071,16.476,19.987  c0,9.395-6.366,17.3-15.015,19.646c0.115,0.313,0.228,0.752,0.228,1.264c0,0.426-0.078,0.903-0.303,1.397  c-0.537,1.19-1.701,2.096-2.415,2.616c0.227,0.189,0.452,0.38,0.566,0.475C44.03,46.969,52.666,37.281,52.666,25.575"></path>	<path fill="#929497" d="M25.73,48.582C14.784,46.673,6.494,37.064,6.494,25.575c0-11.548,8.397-21.13,19.416-22.975l0.008,0.63  C16.53,5.041,9.442,13.301,9.442,23.216c0,9.395,6.93,17.458,15.581,19.804c-0.345,0.679-0.736,1.724-0.686,2.48  C24.447,47.103,25.141,47.987,25.73,48.582"></path>	<path fill="#929497" d="M31.884,18.469l-4.888-3.675l-0.113-2.765c-0.096-0.474,0.443-0.909,0.747-0.906  c0.307,0.004,3.904,0.03,3.904,0.03c0.302,0.002,0.606,0.174,0.598,0.917C32.129,12.81,31.884,18.469,31.884,18.469"></path>	<path fill="#929497" d="M27.368,23.597c0,0.202-0.423,2.761,1.751,4.296c0.468,0.373,2.574,1.943,2.574,1.943  c0.004-0.341,0.19-2.631-0.947-3.552C30.178,25.807,27.368,23.597,27.368,23.597"></path>	<path fill="#929497" d="M27.693,34.218c-0.002,0.403-0.084,2.123,1.456,3.045c0.268,0.237,1.874,1.396,2.041,1.601  c0.038-0.372,0.317-1.817-0.552-2.496C30.134,35.985,27.693,34.185,27.693,34.218"></path>	<path fill="#929497" d="M28.061,42.855c0,0.165-0.078,1.68,1.161,2.667c0.167,0.137,1.403,1.055,1.739,1.261  c0.039-0.472,0.146-1.514-0.724-2.232C29.803,44.11,28.061,42.855,28.061,42.855"></path>	<path fill="#929497" d="M28.411,50.506l2.338,1.714c0,0,0,0.46-0.037,0.697c-0.01,0.073-0.062,3.877-0.062,3.877  c-0.004,0.339-0.477,0.736-1.048,0.731c-0.574-0.005-1.042-0.342-1.041-0.613C28.565,56.645,28.411,50.506,28.411,50.506"></path>	<path fill="#00665E" d="M58.07,7.76c0.681-0.136,2.044-0.255,3.356-0.255c1.585,0,2.556,0.153,3.391,0.647  c0.8,0.426,1.362,1.211,1.362,2.267c0,1.004-0.596,1.942-1.875,2.436v0.034c1.313,0.34,2.285,1.345,2.285,2.827  c0,1.058-0.478,1.875-1.195,2.436c-0.834,0.665-2.231,1.042-4.514,1.042c-1.278,0-2.231-0.086-2.811-0.171V7.76z M60.642,12.138  h0.852c1.38,0,2.096-0.562,2.096-1.413c0-0.87-0.664-1.33-1.84-1.33c-0.579,0-0.903,0.036-1.107,0.086V12.138z M60.642,17.233  c0.256,0.05,0.563,0.05,1.006,0.05c1.175,0,2.215-0.458,2.215-1.668c0-1.159-1.04-1.619-2.334-1.619h-0.886"></path>	<path fill="#00665E" d="M76.181,16.398c0,1.091,0.033,1.976,0.067,2.675H74l-0.121-1.177h-0.052  c-0.321,0.511-1.106,1.364-2.606,1.364c-1.703,0-2.93-1.057-2.93-3.629v-4.89h2.589v4.481c0,1.209,0.392,1.942,1.311,1.942  c0.717,0,1.142-0.495,1.294-0.902c0.069-0.153,0.104-0.342,0.104-0.563v-4.958h2.59"></path>	<path fill="#00665E" d="M78.311,13.398c0-1.038-0.035-1.907-0.069-2.657h2.198l0.103,1.143h0.052  c0.358-0.545,1.107-1.33,2.521-1.33c1.09,0,1.925,0.562,2.282,1.432h0.033c0.324-0.444,0.684-0.785,1.093-1.024  c0.458-0.255,0.971-0.408,1.584-0.408c1.601,0,2.81,1.125,2.81,3.611v4.908h-2.521v-4.515c0-1.21-0.392-1.908-1.227-1.908  c-0.613,0-1.022,0.408-1.209,0.903c-0.052,0.188-0.086,0.442-0.086,0.647v4.873h-2.521v-4.669c0-1.038-0.373-1.754-1.209-1.754  c-0.665,0-1.057,0.511-1.209,0.92c-0.084,0.205-0.104,0.442-0.104,0.664v4.84h-2.521"></path>	<path fill="#00665E" d="M93.03,13.484c0-1.227-0.016-2.027-0.067-2.743h2.215l0.104,1.551h0.066  c0.426-1.228,1.434-1.739,2.249-1.739c0.239,0,0.358,0.016,0.545,0.051v2.436c-0.222-0.035-0.426-0.068-0.715-0.068  c-0.954,0-1.602,0.494-1.771,1.312c-0.035,0.171-0.051,0.357-0.051,0.58v4.208h-2.59"></path>	<path fill="#00665E" d="M107.343,16.398c0,1.091,0.035,1.976,0.068,2.675h-2.249l-0.119-1.177h-0.051  c-0.323,0.511-1.107,1.364-2.606,1.364c-1.704,0-2.931-1.057-2.931-3.629v-4.89h2.59v4.481c0,1.209,0.392,1.942,1.313,1.942  c0.715,0,1.141-0.495,1.295-0.902c0.067-0.153,0.102-0.342,0.102-0.563v-4.958h2.589"></path>	<path fill="#00665E" d="M109.474,13.398c0-1.038-0.035-1.907-0.068-2.657h2.249l0.12,1.159h0.051  c0.34-0.545,1.175-1.346,2.572-1.346c1.704,0,2.981,1.142,2.981,3.595v4.924h-2.589v-4.617c0-1.074-0.374-1.806-1.313-1.806  c-0.715,0-1.142,0.494-1.327,0.971c-0.069,0.17-0.086,0.409-0.086,0.647v4.805h-2.59"></path>	<path fill="#00665E" d="M127.397,17.864c0,1.6-0.323,2.913-1.279,3.747c-0.902,0.783-2.146,1.022-3.373,1.022  c-1.107,0-2.248-0.221-2.999-0.629l0.514-1.978c0.527,0.307,1.431,0.631,2.418,0.631c1.227,0,2.163-0.647,2.163-2.197V17.93h-0.032  c-0.495,0.683-1.296,1.074-2.25,1.074c-2.062,0-3.526-1.668-3.526-4.054c0-2.692,1.72-4.396,3.781-4.396  c1.144,0,1.857,0.494,2.282,1.175h0.036l0.084-0.988h2.249c-0.033,0.545-0.067,1.243-0.067,2.487V17.864z M124.809,14.133  c0-0.155-0.019-0.325-0.054-0.478c-0.187-0.682-0.68-1.142-1.396-1.142c-0.953,0-1.703,0.851-1.703,2.368  c0,1.244,0.614,2.214,1.687,2.214c0.682,0,1.211-0.442,1.38-1.038c0.068-0.206,0.087-0.478,0.087-0.699"></path>	<path fill="#00665E" d="M129.544,13.484c0-1.227-0.016-2.027-0.068-2.743h2.216l0.102,1.551h0.067  c0.427-1.228,1.432-1.739,2.249-1.739c0.239,0,0.358,0.016,0.546,0.051v2.436c-0.223-0.035-0.427-0.068-0.715-0.068  c-0.954,0-1.603,0.494-1.771,1.312c-0.036,0.171-0.052,0.357-0.052,0.58v4.208h-2.589"></path>	<path fill="#00665E" d="M142.8,17.062c0,0.784,0.033,1.55,0.135,2.011h-2.334l-0.152-0.836h-0.052  c-0.545,0.666-1.397,1.023-2.384,1.023c-1.688,0-2.693-1.227-2.693-2.557c0-2.163,1.942-3.186,4.891-3.186v-0.102  c0-0.443-0.24-1.073-1.517-1.073c-0.853,0-1.754,0.29-2.3,0.613l-0.478-1.653c0.579-0.323,1.723-0.749,3.237-0.749  c2.777,0,3.646,1.635,3.646,3.594V17.062z M140.294,15.137c-1.363,0-2.418,0.323-2.418,1.312c0,0.663,0.441,0.987,1.021,0.987  c0.629,0,1.175-0.426,1.346-0.954c0.035-0.136,0.051-0.29,0.051-0.442"></path>	<path fill="#00665E" d="M152.987,6.977v9.609c0,0.953,0.034,1.924,0.069,2.488h-2.3l-0.103-1.209h-0.052  c-0.512,0.919-1.531,1.396-2.606,1.396c-1.977,0-3.56-1.687-3.56-4.276c-0.019-2.794,1.736-4.43,3.73-4.43  c1.04,0,1.822,0.375,2.198,0.938h0.034V6.977H152.987z M150.399,14.285c0-0.153,0-0.324-0.034-0.477  c-0.154-0.699-0.717-1.262-1.517-1.262c-1.193,0-1.789,1.058-1.789,2.369c0,1.397,0.699,2.284,1.772,2.284  c0.749,0,1.361-0.512,1.516-1.243c0.034-0.171,0.052-0.376,0.052-0.581"></path>	<rect x="58.225" y="23.651" fill="#929497" width="1.497" height="11.483"></rect>	<path fill="#929497" d="M62.755,29.119c0-0.867-0.016-1.549-0.068-2.229h1.329l0.086,1.345h0.034  c0.409-0.767,1.363-1.533,2.727-1.533c1.141,0,2.913,0.681,2.913,3.509v4.924h-1.5v-4.752c0-1.329-0.493-2.454-1.908-2.454  c-0.97,0-1.737,0.699-2.01,1.534c-0.068,0.187-0.102,0.46-0.102,0.699v4.974h-1.5"></path>	<path fill="#929497" d="M74.445,24.912v1.978h2.146v1.14h-2.146v4.447c0,1.021,0.289,1.603,1.124,1.603  c0.408,0,0.647-0.035,0.869-0.104l0.068,1.142c-0.289,0.104-0.75,0.206-1.327,0.206c-0.701,0-1.262-0.239-1.619-0.631  c-0.409-0.462-0.58-1.193-0.58-2.163v-4.499h-1.279v-1.14h1.279v-1.518"></path>	<path fill="#929497" d="M79.524,31.267c0.033,2.029,1.311,2.862,2.81,2.862c1.074,0,1.739-0.188,2.285-0.408l0.272,1.057  c-0.529,0.237-1.448,0.526-2.761,0.526c-2.521,0-4.055-1.686-4.055-4.155c0-2.506,1.482-4.464,3.884-4.464  c2.692,0,3.391,2.369,3.391,3.884c0,0.307-0.017,0.544-0.051,0.716L79.524,31.267z M83.902,30.193  c0.018-0.937-0.392-2.437-2.062-2.437c-1.533,0-2.181,1.398-2.299,2.437"></path>	<path fill="#929497" d="M87.72,29.461c0-0.972-0.018-1.805-0.069-2.572h1.313l0.068,1.618h0.051  c0.375-1.108,1.294-1.806,2.299-1.806c0.155,0,0.275,0.016,0.411,0.051v1.397c-0.172-0.016-0.325-0.034-0.529-0.034  c-1.057,0-1.806,0.8-2.011,1.908c-0.033,0.221-0.052,0.46-0.052,0.715v4.396h-1.498"></path>	<path fill="#929497" d="M93.834,29.119c0-0.867-0.017-1.549-0.068-2.229h1.331l0.082,1.345h0.036  c0.408-0.767,1.362-1.533,2.725-1.533c1.142,0,2.913,0.681,2.913,3.509v4.924h-1.499v-4.752c0-1.329-0.494-2.454-1.908-2.454  c-0.971,0-1.738,0.699-2.01,1.534c-0.067,0.187-0.103,0.46-0.103,0.699v4.974h-1.499"></path>	<path fill="#929497" d="M109.593,33.157c0,0.716,0.036,1.415,0.118,1.977h-1.345l-0.135-1.039h-0.053  c-0.441,0.647-1.345,1.228-2.521,1.228c-1.668,0-2.52-1.176-2.52-2.369c0-1.992,1.771-3.083,4.958-3.066v-0.171  c0-0.681-0.188-1.924-1.876-1.908c-0.783,0-1.584,0.221-2.162,0.613l-0.341-1.005c0.682-0.426,1.686-0.715,2.725-0.715  c2.537,0,3.151,1.72,3.151,3.374V33.157z M108.129,30.927c-1.637-0.035-3.493,0.256-3.493,1.855c0,0.989,0.647,1.432,1.396,1.432  c1.091,0,1.788-0.682,2.027-1.38c0.052-0.154,0.069-0.323,0.069-0.478"></path>	<path fill="#929497" d="M114.23,24.912v1.978h2.146v1.14h-2.146v4.447c0,1.021,0.29,1.603,1.126,1.603  c0.406,0,0.646-0.035,0.867-0.104l0.066,1.142c-0.288,0.104-0.748,0.206-1.327,0.206c-0.698,0-1.261-0.239-1.618-0.631  c-0.409-0.462-0.58-1.193-0.58-2.163v-4.499h-1.278v-1.14h1.278v-1.518"></path>	<path fill="#929497" d="M119.273,25.372c-0.563,0-0.937-0.442-0.937-0.972c0-0.528,0.392-0.954,0.971-0.954  c0.58,0,0.953,0.426,0.953,0.954c0,0.529-0.373,0.972-0.97,0.972H119.273z M118.557,26.89h1.5v8.244h-1.5"></path>	<path fill="#929497" d="M126.395,35.322c-2.214,0-3.953-1.636-3.953-4.242c0-2.76,1.824-4.379,4.09-4.379  c2.367,0,3.968,1.72,3.968,4.226c0,3.065-2.128,4.396-4.088,4.396H126.395z M126.447,34.197c1.43,0,2.504-1.346,2.504-3.221  c0-1.396-0.699-3.151-2.471-3.151c-1.755,0-2.522,1.636-2.522,3.204c0,1.805,1.021,3.168,2.472,3.168"></path>	<path fill="#929497" d="M132.887,29.119c0-0.867-0.018-1.549-0.068-2.229h1.327l0.087,1.345h0.034  c0.409-0.767,1.362-1.533,2.724-1.533c1.145,0,2.916,0.681,2.916,3.509v4.924h-1.5v-4.752c0-1.329-0.494-2.454-1.908-2.454  c-0.971,0-1.738,0.699-2.012,1.534c-0.066,0.187-0.101,0.46-0.101,0.699v4.974h-1.499"></path>	<path fill="#929497" d="M148.646,33.157c0,0.716,0.034,1.415,0.12,1.977h-1.347l-0.136-1.039h-0.052  c-0.442,0.647-1.346,1.228-2.521,1.228c-1.669,0-2.521-1.176-2.521-2.369c0-1.992,1.771-3.083,4.958-3.066v-0.171  c0-0.681-0.188-1.924-1.873-1.908c-0.785,0-1.586,0.221-2.164,0.613l-0.341-1.005c0.681-0.426,1.688-0.715,2.727-0.715  c2.536,0,3.15,1.72,3.15,3.374V33.157z M147.182,30.927c-1.636-0.035-3.494,0.256-3.494,1.855c0,0.989,0.648,1.432,1.396,1.432  c1.092,0,1.79-0.682,2.028-1.38c0.052-0.154,0.069-0.323,0.069-0.478"></path>	<rect x="151.543" y="23.038" fill="#929497" width="1.499" height="12.096"></rect>	<polyline fill="#00665E" points="81.101,47.022 81.101,50.478 85.095,50.478 85.095,47.022 86.172,47.022 86.172,55.279   85.095,55.279 85.095,51.409 81.101,51.409 81.101,55.279 80.022,55.279 80.022,47.022  "></polyline>	<path fill="#00665E" d="M91.599,55.414c-2.193,0-3.712-1.689-3.712-4.19c0-2.62,1.617-4.336,3.821-4.336  c2.267,0,3.725,1.728,3.725,4.179c0,2.829-1.727,4.348-3.821,4.348H91.599z M91.648,54.545c1.69,0,2.647-1.556,2.647-3.431  c0-1.642-0.858-3.355-2.635-3.355c-1.777,0-2.659,1.653-2.659,3.442c0,1.739,0.955,3.344,2.634,3.344"></path>	<path fill="#00665E" d="M97.04,53.98c0.476,0.308,1.162,0.54,1.897,0.54c1.09,0,1.727-0.563,1.727-1.408  c0-0.76-0.44-1.214-1.556-1.631c-1.348-0.49-2.18-1.199-2.18-2.351c0-1.286,1.066-2.243,2.67-2.243  c0.833,0,1.459,0.196,1.814,0.405l-0.296,0.869c-0.256-0.16-0.81-0.392-1.556-0.392c-1.126,0-1.556,0.674-1.556,1.238  c0,0.771,0.503,1.15,1.643,1.592c1.396,0.55,2.093,1.212,2.093,2.425c0,1.274-0.929,2.389-2.877,2.389  c-0.797,0-1.667-0.244-2.108-0.538"></path>	<path fill="#00665E" d="M103.568,47.134c0.515-0.098,1.188-0.173,2.046-0.173c1.052,0,1.823,0.245,2.314,0.687  c0.453,0.393,0.734,0.992,0.734,1.729c0,0.747-0.22,1.334-0.648,1.763c-0.563,0.601-1.481,0.906-2.524,0.906  c-0.318,0-0.611-0.011-0.857-0.073v3.308h-1.064V47.134z M104.633,51.103c0.234,0.062,0.539,0.085,0.883,0.085  c1.299,0,2.068-0.638,2.068-1.752c0-1.102-0.77-1.628-1.945-1.628c-0.467,0-0.822,0.049-1.006,0.085"></path>	<rect x="110.428" y="47.022" fill="#00665E" width="1.077" height="8.257"></rect>	<polyline fill="#00665E" points="115.293,47.931 112.78,47.931 112.78,47.022 118.893,47.022 118.893,47.931 116.369,47.931   116.369,55.279 115.293,55.279  "></polyline>	<path fill="#00665E" d="M120.585,52.682l-0.858,2.598h-1.103l2.806-8.257h1.285l2.819,8.257h-1.141l-0.882-2.598H120.585z   M123.291,51.849l-0.821-2.376c-0.17-0.539-0.293-1.028-0.415-1.507h-0.038c-0.108,0.479-0.244,0.992-0.403,1.494l-0.809,2.389"></path>	<polyline fill="#00665E" points="127.089,47.022 128.167,47.022 128.167,54.386 131.696,54.386 131.696,55.279 127.089,55.279  "></polyline>	<line fill="none" stroke="#00665E" stroke-width="1.053" x1="57.912" y1="41.981" x2="152.871" y2="41.981"></line></g></svg>