<svg xmlns="http://www.w3.org/2000/svg" width="157" height="51" viewBox="0 0 157 51" fill="none"><g clip-path="url(#clip0_1473_1262)"><path d="M61.6006 32.1297V8.696H63.8138V20.836L75.8236 8.696H78.3297L69.0864 18.0369L79.957 32.1297H77.2556L67.4916 19.4039L63.8138 23.0817V32.1297H61.6006ZM95.2213 23.277C94.3968 23.6242 93.5614 23.852 92.7152 23.9605C91.869 24.069 91.0227 24.1558 90.1765 24.2209C88.6794 24.3293 87.5077 24.6657 86.6615 25.2298C85.8369 25.7939 85.4247 26.651 85.4247 27.801C85.4247 28.3218 85.5223 28.7774 85.7176 29.168C85.9346 29.5368 86.2058 29.8515 86.5313 30.1118C86.8784 30.3505 87.269 30.5349 87.703 30.6651C88.1586 30.7736 88.6143 30.8279 89.0699 30.8279C89.8511 30.8279 90.6105 30.7302 91.3482 30.5349C92.0859 30.3397 92.7369 30.0467 93.301 29.6562C93.8869 29.2439 94.3534 28.734 94.7005 28.1265C95.0477 27.4972 95.2213 26.7595 95.2213 25.9133V23.277ZM91.934 22.3006C92.3029 22.2572 92.7369 22.1921 93.2359 22.1053C93.7567 22.0185 94.1798 21.8992 94.5053 21.7473C94.8307 21.5954 95.026 21.3459 95.0911 20.9987C95.1779 20.6298 95.2213 20.2935 95.2213 19.9898C95.2213 18.9917 94.8958 18.178 94.2449 17.5487C93.6156 16.8978 92.5416 16.5723 91.0227 16.5723C90.3501 16.5723 89.7317 16.6374 89.1676 16.7676C88.6034 16.8761 88.1044 17.0822 87.6704 17.386C87.2582 17.6681 86.911 18.0586 86.6289 18.5577C86.3685 19.0351 86.195 19.6426 86.1082 20.3803H84.1228C84.1879 19.3822 84.4157 18.536 84.8063 17.8417C85.1968 17.1256 85.6959 16.5506 86.3034 16.1167C86.9327 15.661 87.6487 15.3356 88.4515 15.1403C89.2761 14.9233 90.144 14.8148 91.0553 14.8148C91.9015 14.8148 92.6935 14.9124 93.4312 15.1077C94.1906 15.2813 94.8416 15.5742 95.384 15.9865C95.9482 16.3771 96.3821 16.9087 96.6859 17.5813C97.0114 18.2539 97.1741 19.0784 97.1741 20.0549V29.2331C97.1741 29.9925 97.3043 30.4807 97.5647 30.6977C97.8467 30.893 98.4 30.8387 99.2245 30.5349V32.0646C99.0727 32.108 98.8448 32.1731 98.5411 32.2599C98.259 32.3467 97.9769 32.3901 97.6948 32.3901C97.3911 32.3901 97.0981 32.3576 96.8161 32.2925C96.4906 32.2491 96.2302 32.1514 96.035 31.9996C95.8397 31.826 95.6769 31.6307 95.5468 31.4137C95.4383 31.175 95.3623 30.9255 95.3189 30.6651C95.2755 30.3831 95.2538 30.0901 95.2538 29.7864C94.4293 30.6977 93.4854 31.392 92.4223 31.8694C91.3591 32.3467 90.2091 32.5854 88.9723 32.5854C88.2346 32.5854 87.5185 32.4878 86.8242 32.2925C86.1516 32.0972 85.5549 31.7934 85.0341 31.3812C84.5134 30.9689 84.1011 30.4698 83.7973 29.884C83.4936 29.2765 83.3417 28.5604 83.3417 27.7359C83.3417 24.8718 85.3053 23.1794 89.2327 22.6586L91.934 22.3006ZM105.267 32.1297H103.314V15.2705H105.267V17.8091H105.332C105.831 16.8327 106.547 16.095 107.48 15.5959C108.413 15.0752 109.433 14.8148 110.54 14.8148C111.321 14.8148 111.983 14.9016 112.525 15.0752C113.068 15.2488 113.523 15.4874 113.892 15.7912C114.283 16.0733 114.597 16.4096 114.836 16.8002C115.096 17.1907 115.313 17.6138 115.487 18.0695C116.051 16.9629 116.8 16.1492 117.733 15.6285C118.687 15.086 119.772 14.8148 120.987 14.8148C122.137 14.8148 123.049 15.0101 123.721 15.4007C124.416 15.7695 124.947 16.2686 125.316 16.8978C125.685 17.5053 125.924 18.2105 126.032 19.0134C126.162 19.8162 126.227 20.6407 126.227 21.4869V32.1297H124.275V20.478C124.275 19.2629 124.014 18.3082 123.493 17.6138C122.994 16.9195 122.051 16.5723 120.662 16.5723C119.946 16.5723 119.252 16.7351 118.579 17.0605C117.928 17.3643 117.353 17.8417 116.854 18.4926C116.637 18.7747 116.452 19.111 116.301 19.5016C116.17 19.8704 116.062 20.261 115.975 20.6732C115.888 21.0855 115.823 21.4978 115.78 21.91C115.758 22.3223 115.747 22.702 115.747 23.0492V32.1297H113.794V20.478C113.794 19.2629 113.534 18.3082 113.013 17.6138C112.514 16.9195 111.57 16.5723 110.182 16.5723C109.466 16.5723 108.771 16.7351 108.099 17.0605C107.448 17.3643 106.873 17.8417 106.374 18.4926C106.157 18.7747 105.972 19.111 105.82 19.5016C105.69 19.8704 105.582 20.261 105.495 20.6732C105.408 21.0855 105.343 21.4978 105.3 21.91C105.278 22.3223 105.267 22.702 105.267 23.0492V32.1297ZM138.693 32.5854C137.608 32.5637 136.589 32.3684 135.634 31.9996C134.701 31.6307 133.876 31.0774 133.16 30.3397C132.466 29.6019 131.913 28.6798 131.5 27.5732C131.088 26.4666 130.882 25.1756 130.882 23.7001C130.882 22.4633 131.045 21.3133 131.37 20.2501C131.696 19.1652 132.184 18.2214 132.835 17.4186C133.486 16.6157 134.299 15.9865 135.276 15.5308C136.252 15.0535 137.391 14.8148 138.693 14.8148C140.017 14.8148 141.167 15.0535 142.143 15.5308C143.12 15.9865 143.933 16.6157 144.584 17.4186C145.235 18.1997 145.713 19.1327 146.016 20.2176C146.342 21.3025 146.504 22.4633 146.504 23.7001C146.504 25.0454 146.32 26.2605 145.951 27.3453C145.582 28.4302 145.051 29.3633 144.356 30.1444C143.684 30.9255 142.859 31.533 141.883 31.967C140.928 32.3793 139.865 32.5854 138.693 32.5854ZM144.422 23.7001C144.422 22.702 144.313 21.769 144.096 20.9011C143.879 20.0332 143.543 19.2846 143.087 18.6553C142.631 18.0044 142.046 17.4945 141.33 17.1256C140.614 16.7568 139.735 16.5723 138.693 16.5723C137.673 16.5723 136.795 16.7785 136.057 17.1907C135.341 17.5813 134.755 18.1129 134.299 18.7855C133.844 19.4365 133.507 20.1959 133.29 21.0638C133.073 21.91 132.965 22.7888 132.965 23.7001C132.965 24.7416 133.084 25.7072 133.323 26.5968C133.583 27.4647 133.952 28.2133 134.43 28.8425C134.907 29.4717 135.504 29.9599 136.22 30.3071C136.936 30.6543 137.76 30.8279 138.693 30.8279C139.713 30.8279 140.581 30.6326 141.297 30.242C142.035 29.8298 142.631 29.2873 143.087 28.6147C143.543 27.942 143.879 27.1826 144.096 26.3364C144.313 25.4902 144.422 24.6114 144.422 23.7001ZM151.668 32.1297V8.696H153.621V32.1297H151.668Z" fill="#3D3D3D"></path><path d="M61.3385 46.2224C61.0452 46.2224 60.7635 46.1646 60.4934 46.0493C60.2255 45.9337 59.9876 45.7676 59.7798 45.5504C59.5743 45.3334 59.4103 45.0691 59.2881 44.7572C59.1656 44.4432 59.1045 44.09 59.1045 43.6973C59.1045 43.3049 59.1646 42.9492 59.2845 42.6306C59.4047 42.3097 59.571 42.0337 59.7834 41.8027C59.9935 41.5743 60.2418 41.3976 60.528 41.2728C60.8145 41.1482 61.1203 41.0859 61.446 41.0859C61.6884 41.0859 61.9077 41.1159 62.104 41.1758C62.3003 41.2359 62.4873 41.3202 62.665 41.4286L62.8071 41.1931H63.0842L63.1155 42.9458H62.8313C62.7944 42.775 62.7389 42.5901 62.665 42.3917C62.5912 42.1908 62.5046 42.021 62.4053 41.8824C62.2945 41.7253 62.1629 41.6031 62.0105 41.5152C61.858 41.4253 61.6838 41.3802 61.4875 41.3802C61.2634 41.3802 61.0546 41.4299 60.8606 41.5292C60.6688 41.6285 60.5025 41.775 60.3617 41.969C60.2278 42.1561 60.1228 42.394 60.0467 42.6825C59.9703 42.9713 59.9323 43.2932 59.9323 43.6489C59.9323 43.9629 59.9716 44.2517 60.05 44.5148C60.131 44.7758 60.2451 45.0055 60.393 45.2041C60.5407 45.4004 60.7151 45.554 60.9161 45.6647C61.1191 45.7755 61.3454 45.831 61.5947 45.831C61.7819 45.831 61.9538 45.8022 62.1109 45.7444C62.268 45.6844 62.4042 45.6059 62.5196 45.5089C62.635 45.4073 62.7366 45.2919 62.8244 45.1626C62.9123 45.0332 62.9838 44.8924 63.0391 44.7399L63.2989 44.8646C63.1004 45.3518 62.8372 45.7006 62.5092 45.9107C62.1814 46.1185 61.7911 46.2224 61.3385 46.2224ZM69.1199 41.775C69.3369 42.0013 69.5068 42.2751 69.629 42.5959C69.7515 42.9145 69.8126 43.268 69.8126 43.6558C69.8126 44.0462 69.7502 44.4004 69.6257 44.7192C69.5009 45.0378 69.3278 45.3092 69.1062 45.5331C68.8913 45.7549 68.642 45.9257 68.358 46.0457C68.0739 46.1659 67.7713 46.2258 67.4505 46.2258C67.1087 46.2258 66.7924 46.1623 66.5014 46.0353C66.2128 45.9061 65.9646 45.7271 65.7568 45.4985C65.549 45.2746 65.385 45.0032 65.2648 44.6846C65.1471 44.3635 65.0883 44.0207 65.0883 43.6558C65.0883 43.2563 65.1507 42.9008 65.2753 42.5891C65.4 42.2751 65.5719 42.0036 65.7914 41.775C66.0084 41.5488 66.2602 41.3756 66.5465 41.2555C66.8352 41.1355 67.1365 41.0754 67.4505 41.0754C67.7761 41.0754 68.0832 41.1366 68.3718 41.259C68.6605 41.3813 68.9099 41.5534 69.1199 41.775ZM68.6038 45.2596C68.7331 45.0493 68.8266 44.8114 68.8844 44.546C68.9445 44.2805 68.9745 43.9838 68.9745 43.6558C68.9745 43.3187 68.9409 43.0092 68.874 42.7276C68.8093 42.4459 68.7135 42.2058 68.5865 42.0072C68.4596 41.8109 68.3002 41.6586 68.1085 41.5499C67.917 41.4391 67.6975 41.3836 67.4505 41.3836C67.1734 41.3836 66.9379 41.4472 66.7438 41.5743C66.55 41.7011 66.3919 41.8709 66.2694 42.0833C66.154 42.2865 66.0672 42.5244 66.0096 42.7969C65.9541 43.0693 65.9264 43.3556 65.9264 43.6558C65.9264 43.9884 65.9564 44.2886 66.0165 44.5563C66.0766 44.8242 66.1713 45.062 66.3005 45.2698C66.4252 45.473 66.5823 45.6324 66.7716 45.7478C66.961 45.8611 67.1872 45.9176 67.4505 45.9176C67.6975 45.9176 67.9203 45.8598 68.1189 45.7444C68.3175 45.6289 68.4792 45.4674 68.6038 45.2596ZM74.9064 43.8532C75.0103 43.9688 75.0865 44.0956 75.1349 44.2343C75.1858 44.3706 75.2112 44.5298 75.2112 44.7123C75.2112 45.1463 75.0506 45.5043 74.7297 45.786C74.4086 46.0676 74.0103 46.2084 73.5346 46.2084C73.3154 46.2084 73.0959 46.1751 72.8766 46.1081C72.6573 46.0388 72.4679 45.9558 72.3085 45.8588L72.1597 46.1116H71.8825L71.8341 44.4282H72.1147C72.1723 44.636 72.2392 44.8242 72.3156 44.9927C72.394 45.159 72.4967 45.3149 72.6237 45.4605C72.7439 45.5967 72.8835 45.7052 73.0429 45.786C73.2046 45.8667 73.3915 45.9072 73.6039 45.9072C73.7633 45.9072 73.9018 45.8865 74.0197 45.8448C74.1397 45.8033 74.2367 45.7444 74.3105 45.6683C74.3844 45.5919 74.4387 45.503 74.4733 45.4014C74.5102 45.2975 74.5288 45.1786 74.5288 45.0447C74.5288 44.8486 74.4733 44.666 74.3625 44.4974C74.2517 44.3266 74.0867 44.1972 73.8672 44.1096C73.7172 44.0495 73.5451 43.9838 73.351 43.9122C73.1572 43.8382 72.9897 43.7689 72.8489 43.7044C72.5718 43.5797 72.3559 43.4169 72.2013 43.216C72.0488 43.0128 71.9726 42.7482 71.9726 42.4228C71.9726 42.2356 72.0108 42.0614 72.0869 41.8997C72.1631 41.738 72.2716 41.5939 72.4124 41.4668C72.5463 41.3466 72.7047 41.2532 72.887 41.1862C73.0694 41.1169 73.2599 41.0823 73.4585 41.0823C73.6849 41.0823 73.8868 41.1169 74.0646 41.1862C74.2448 41.2555 74.4086 41.3364 74.5565 41.4286L74.6984 41.1931H74.9757L75.0032 42.8246H74.7228C74.6719 42.6375 74.6143 42.4585 74.5496 42.2876C74.4873 42.1167 74.4053 41.9621 74.3037 41.8236C74.2044 41.6896 74.0831 41.5834 73.94 41.505C73.7969 41.424 73.6212 41.3836 73.4134 41.3836C73.1941 41.3836 73.007 41.4541 72.8524 41.5949C72.6976 41.7357 72.6204 41.9079 72.6204 42.1111C72.6204 42.3235 72.6699 42.5002 72.7692 42.641C72.8685 42.7795 73.0128 42.8939 73.2023 42.9838C73.3709 43.0647 73.5359 43.1351 73.6976 43.1951C73.8614 43.2529 74.0197 43.3153 74.172 43.3823C74.3106 43.4422 74.4432 43.5104 74.5703 43.5865C74.6997 43.6627 74.8117 43.7516 74.9064 43.8532ZM83.1658 46.1081H80.9939V45.8621C81.0726 45.8598 81.1729 45.8517 81.2954 45.8379C81.42 45.8241 81.5055 45.8045 81.5516 45.7791C81.6232 45.7353 81.6751 45.6856 81.7074 45.6301C81.7421 45.5723 81.7594 45.5008 81.7594 45.4154V41.8409H81.7074L80.0311 46.0284H79.8579L78.2612 41.7543H78.2162V44.6879C78.2162 44.9721 78.2335 45.188 78.2681 45.3357C78.3051 45.4834 78.3605 45.5896 78.4344 45.6543C78.4851 45.7029 78.5903 45.749 78.7496 45.7928C78.9088 45.8369 79.0127 45.8598 79.0613 45.8621V46.1081H77.0766V45.8621C77.1805 45.8529 77.289 45.8356 77.4023 45.8102C77.5177 45.7849 77.6065 45.7467 77.6689 45.6958C77.7497 45.6314 77.8052 45.532 77.8352 45.3981C77.8652 45.2642 77.8803 45.0401 77.8803 44.7261V42.2114C77.8803 42.066 77.863 41.9471 77.8283 41.8547C77.7937 41.7625 77.744 41.6873 77.6794 41.6296C77.6078 41.5672 77.52 41.5211 77.4161 41.491C77.3122 41.461 77.2095 41.4437 77.1079 41.4391V41.1931H78.7843L80.1905 44.8784L81.3924 41.7958C81.4362 41.6828 81.4732 41.5649 81.5032 41.4426C81.5355 41.3179 81.5529 41.2348 81.5551 41.1931H83.1587V41.4391C83.0942 41.4414 83.011 41.4518 82.9094 41.4704C82.8101 41.4887 82.7375 41.506 82.6912 41.5223C82.6127 41.5499 82.5595 41.5962 82.532 41.6609C82.5042 41.7253 82.4902 41.7958 82.4902 41.872V45.4154C82.4902 45.4962 82.5042 45.5644 82.532 45.6197C82.5595 45.6752 82.6127 45.7236 82.6912 45.7651C82.7327 45.7883 82.8067 45.8102 82.9129 45.831C83.0191 45.8494 83.1034 45.8598 83.1658 45.8621V46.1081ZM89.3816 44.6604L89.2882 46.1081H85.2079V45.8621C85.2772 45.8575 85.3696 45.8483 85.485 45.8344C85.6003 45.8183 85.6755 45.8022 85.7101 45.786C85.7839 45.7513 85.8349 45.7063 85.8626 45.651C85.8926 45.5955 85.9075 45.525 85.9075 45.4396V41.9066C85.9075 41.8305 85.8949 41.7635 85.8695 41.7057C85.844 41.6458 85.791 41.5972 85.7101 41.5603C85.6477 41.5302 85.5634 41.5037 85.4572 41.4806C85.3533 41.4576 85.2703 41.4437 85.2079 41.4391V41.1931H89.0109V42.3777H88.7511C88.705 42.2023 88.6047 42.0164 88.4499 41.82C88.2976 41.6214 88.1519 41.5129 88.0134 41.4946C87.9418 41.4852 87.8565 41.4783 87.7572 41.4737C87.6579 41.4691 87.5446 41.4668 87.4178 41.4668H86.6454V43.4203H87.1995C87.3773 43.4203 87.5066 43.4042 87.5874 43.3719C87.6706 43.3372 87.7432 43.2807 87.8056 43.202C87.8565 43.1351 87.8991 43.0462 87.9337 42.9354C87.9706 42.8223 87.995 42.7161 88.0065 42.6168H88.2663V44.539H88.0065C87.9973 44.4282 87.9719 44.3115 87.9304 44.1893C87.8911 44.0645 87.8494 43.9744 87.8056 43.9191C87.734 43.829 87.6521 43.7701 87.5596 43.7424C87.4697 43.7146 87.3495 43.7009 87.1995 43.7009H86.6454V45.1763C86.6454 45.3242 86.6556 45.4407 86.6765 45.5262C86.6973 45.6115 86.7376 45.6762 86.7977 45.7202C86.8578 45.7641 86.9398 45.7928 87.0437 45.8068C87.1476 45.8183 87.2953 45.8241 87.487 45.8241C87.5632 45.8241 87.6635 45.8241 87.7883 45.8241C87.913 45.8241 88.018 45.8195 88.1035 45.8102C88.1912 45.801 88.2813 45.7849 88.3737 45.7618C88.4684 45.7363 88.5354 45.7029 88.5746 45.6612C88.6808 45.5504 88.7916 45.3831 88.907 45.159C89.0249 44.9329 89.1 44.7666 89.1323 44.6604H89.3816ZM95.2962 42.5267H95.0571C95.0364 42.4436 94.9983 42.3454 94.9428 42.2323C94.8898 42.1167 94.8297 42.0082 94.7627 41.9066C94.6934 41.8004 94.6173 41.708 94.534 41.6296C94.4533 41.5488 94.3749 41.5025 94.2985 41.491C94.2269 41.4818 94.137 41.475 94.0283 41.4704C93.9198 41.4656 93.8195 41.4633 93.727 41.4633H93.5261V45.3946C93.5261 45.4707 93.5424 45.5412 93.5747 45.6059C93.6071 45.6683 93.6636 45.7167 93.7444 45.7513C93.7859 45.7676 93.8725 45.7895 94.0041 45.817C94.1381 45.8448 94.242 45.8598 94.3158 45.8621V46.1081H91.9952V45.8621C92.0599 45.8575 92.1581 45.8483 92.2896 45.8344C92.4235 45.8206 92.5159 45.8033 92.5668 45.7824C92.643 45.7526 92.6983 45.7098 92.7329 45.6543C92.77 45.5967 92.7884 45.5204 92.7884 45.4256V41.4633H92.5875C92.5159 41.4633 92.427 41.4656 92.3209 41.4704C92.2147 41.4727 92.1131 41.4795 92.016 41.491C91.9399 41.5002 91.8602 41.5465 91.7769 41.6296C91.6962 41.7105 91.6211 41.8027 91.5518 41.9066C91.4826 42.0105 91.4214 42.1215 91.3682 42.2392C91.3152 42.3546 91.2783 42.4505 91.2575 42.5267H91.015V41.1931H95.2962V42.5267ZM99.2606 46.1081H97.0472V45.8621C97.1096 45.8575 97.1998 45.8506 97.3174 45.8415C97.4353 45.8321 97.5183 45.8183 97.5669 45.7997C97.6431 45.7699 97.6984 45.7294 97.7332 45.6785C97.7679 45.6255 97.7852 45.5527 97.7852 45.4605V41.8997C97.7852 41.819 97.7725 41.752 97.747 41.6988C97.7215 41.6435 97.6615 41.5972 97.5669 41.5603C97.4977 41.5325 97.4098 41.5073 97.3037 41.4841C97.1998 41.4587 97.1142 41.4437 97.0472 41.4391V41.1931H99.2606V41.4391C99.1891 41.4414 99.1035 41.4505 99.0042 41.4668C98.9049 41.4806 98.8183 41.4992 98.7445 41.5223C98.6569 41.5499 98.5978 41.5949 98.5678 41.6573C98.5379 41.7197 98.5229 41.7889 98.5229 41.8651V45.4223C98.5229 45.4985 98.539 45.5667 98.5713 45.6266C98.6059 45.6844 98.6637 45.7305 98.7445 45.7651C98.7931 45.7837 98.8715 45.8045 98.98 45.8275C99.0908 45.8483 99.1845 45.8598 99.2606 45.8621V46.1081ZM103.461 46.2224C103.167 46.2224 102.886 46.1646 102.615 46.0493C102.348 45.9337 102.11 45.7676 101.902 45.5504C101.696 45.3334 101.532 45.0691 101.41 44.7572C101.288 44.4432 101.227 44.09 101.227 43.6973C101.227 43.3049 101.287 42.9492 101.407 42.6306C101.527 42.3097 101.693 42.0337 101.905 41.8027C102.116 41.5743 102.364 41.3976 102.65 41.2728C102.936 41.1482 103.242 41.0859 103.568 41.0859C103.811 41.0859 104.03 41.1159 104.226 41.1758C104.422 41.2359 104.609 41.3202 104.787 41.4286L104.929 41.1931H105.206L105.237 42.9458H104.953C104.916 42.775 104.861 42.5901 104.787 42.3917C104.713 42.1908 104.627 42.021 104.527 41.8824C104.417 41.7253 104.285 41.6031 104.133 41.5152C103.98 41.4253 103.806 41.3802 103.61 41.3802C103.386 41.3802 103.177 41.4299 102.983 41.5292C102.791 41.6285 102.625 41.775 102.484 41.969C102.35 42.1561 102.245 42.394 102.169 42.6825C102.092 42.9713 102.054 43.2932 102.054 43.6489C102.054 43.9629 102.094 44.2517 102.172 44.5148C102.253 44.7758 102.367 45.0055 102.515 45.2041C102.663 45.4004 102.837 45.554 103.038 45.6647C103.241 45.7755 103.468 45.831 103.717 45.831C103.904 45.831 104.076 45.8022 104.233 45.7444C104.39 45.6844 104.526 45.6059 104.642 45.5089C104.757 45.4073 104.859 45.2919 104.947 45.1626C105.034 45.0332 105.106 44.8924 105.161 44.7399L105.421 44.8646C105.223 45.3518 104.959 45.7006 104.631 45.9107C104.304 46.1185 103.913 46.2224 103.461 46.2224ZM115.49 46.1081H113.45V45.8621C113.506 45.8575 113.586 45.8506 113.69 45.8415C113.796 45.8321 113.868 45.8183 113.908 45.7997C113.977 45.7722 114.028 45.7305 114.06 45.6752C114.092 45.6174 114.108 45.5435 114.108 45.4534V43.7044H111.798V45.4154C111.798 45.4962 111.811 45.5644 111.836 45.6197C111.864 45.6752 111.917 45.7236 111.996 45.7651C112.035 45.786 112.104 45.8068 112.204 45.8275C112.305 45.8483 112.385 45.8598 112.443 45.8621V46.1081H110.403V45.8621C110.458 45.8575 110.537 45.8506 110.641 45.8415C110.748 45.8321 110.82 45.8183 110.86 45.7997C110.929 45.7722 110.98 45.7305 111.012 45.6752C111.044 45.6174 111.061 45.5435 111.061 45.4534V41.9066C111.061 41.8328 111.046 41.7658 111.015 41.7057C110.985 41.6435 110.933 41.5949 110.86 41.5603C110.797 41.5302 110.721 41.5037 110.631 41.4806C110.543 41.4576 110.467 41.4437 110.403 41.4391V41.1931H112.443V41.4391C112.378 41.4414 112.298 41.4518 112.204 41.4704C112.111 41.4887 112.042 41.506 111.996 41.5223C111.917 41.5499 111.864 41.5962 111.836 41.6609C111.811 41.7253 111.798 41.7958 111.798 41.872V43.3961H114.108V41.9066C114.108 41.8328 114.093 41.7658 114.064 41.7057C114.034 41.6435 113.982 41.5949 113.908 41.5603C113.845 41.5302 113.769 41.5037 113.679 41.4806C113.591 41.4576 113.515 41.4437 113.45 41.4391V41.1931H115.49V41.4391C115.426 41.4414 115.346 41.4518 115.252 41.4704C115.159 41.4887 115.09 41.506 115.044 41.5223C114.965 41.5499 114.912 41.5962 114.884 41.6609C114.859 41.7253 114.846 41.7958 114.846 41.872V45.4154C114.846 45.4962 114.859 45.5644 114.884 45.6197C114.912 45.6752 114.965 45.7236 115.044 45.7651C115.083 45.786 115.152 45.8068 115.252 45.8275C115.353 45.8483 115.433 45.8598 115.49 45.8621V46.1081ZM121.575 41.775C121.792 42.0013 121.962 42.2751 122.084 42.5959C122.206 42.9145 122.268 43.268 122.268 43.6558C122.268 44.0462 122.205 44.4004 122.081 44.7192C121.956 45.0378 121.783 45.3092 121.561 45.5331C121.346 45.7549 121.097 45.9257 120.813 46.0457C120.529 46.1659 120.226 46.2258 119.905 46.2258C119.564 46.2258 119.247 46.1623 118.956 46.0353C118.668 45.9061 118.419 45.7271 118.212 45.4985C118.004 45.2746 117.84 45.0032 117.72 44.6846C117.602 44.3635 117.543 44.0207 117.543 43.6558C117.543 43.2563 117.605 42.9008 117.73 42.5891C117.855 42.2751 118.027 42.0036 118.246 41.775C118.463 41.5488 118.715 41.3756 119.001 41.2555C119.29 41.1355 119.591 41.0754 119.905 41.0754C120.231 41.0754 120.538 41.1366 120.827 41.259C121.115 41.3813 121.365 41.5534 121.575 41.775ZM121.059 45.2596C121.188 45.0493 121.282 44.8114 121.339 44.546C121.399 44.2805 121.429 43.9838 121.429 43.6558C121.429 43.3187 121.396 43.0092 121.329 42.7276C121.264 42.4459 121.168 42.2058 121.041 42.0072C120.914 41.8109 120.755 41.6586 120.563 41.5499C120.372 41.4391 120.152 41.3836 119.905 41.3836C119.628 41.3836 119.393 41.4472 119.199 41.5743C119.005 41.7011 118.847 41.8709 118.724 42.0833C118.609 42.2865 118.522 42.5244 118.464 42.7969C118.409 43.0693 118.381 43.3556 118.381 43.6558C118.381 43.9884 118.411 44.2886 118.471 44.5563C118.531 44.8242 118.626 45.062 118.755 45.2698C118.88 45.473 119.037 45.6324 119.226 45.7478C119.416 45.8611 119.642 45.9176 119.905 45.9176C120.152 45.9176 120.375 45.8598 120.574 45.7444C120.772 45.6289 120.934 45.4674 121.059 45.2596ZM127.361 43.8532C127.465 43.9688 127.541 44.0956 127.59 44.2343C127.64 44.3706 127.666 44.5298 127.666 44.7123C127.666 45.1463 127.505 45.5043 127.185 45.786C126.864 46.0676 126.465 46.2084 125.99 46.2084C125.77 46.2084 125.551 46.1751 125.332 46.1081C125.112 46.0388 124.923 45.9558 124.763 45.8588L124.614 46.1116H124.337L124.289 44.4282H124.569C124.627 44.636 124.694 44.8242 124.77 44.9927C124.849 45.159 124.952 45.3149 125.079 45.4605C125.199 45.5967 125.338 45.7052 125.498 45.786C125.659 45.8667 125.846 45.9072 126.059 45.9072C126.218 45.9072 126.357 45.8865 126.474 45.8448C126.595 45.8033 126.692 45.7444 126.765 45.6683C126.839 45.5919 126.894 45.503 126.928 45.4014C126.965 45.2975 126.984 45.1786 126.984 45.0447C126.984 44.8486 126.928 44.666 126.817 44.4974C126.707 44.3266 126.541 44.1972 126.322 44.1096C126.172 44.0495 126 43.9838 125.806 43.9122C125.612 43.8382 125.445 43.7689 125.304 43.7044C125.027 43.5797 124.811 43.4169 124.656 43.216C124.504 43.0128 124.427 42.7482 124.427 42.4228C124.427 42.2356 124.465 42.0614 124.542 41.8997C124.618 41.738 124.726 41.5939 124.867 41.4668C125.001 41.3466 125.159 41.2532 125.342 41.1862C125.524 41.1169 125.715 41.0823 125.913 41.0823C126.14 41.0823 126.342 41.1169 126.519 41.1862C126.7 41.2555 126.864 41.3364 127.011 41.4286L127.153 41.1931H127.43L127.458 42.8246H127.178C127.127 42.6375 127.069 42.4585 127.004 42.2876C126.942 42.1167 126.86 41.9621 126.759 41.8236C126.659 41.6896 126.538 41.5834 126.395 41.505C126.252 41.424 126.076 41.3836 125.868 41.3836C125.649 41.3836 125.462 41.4541 125.307 41.5949C125.153 41.7357 125.075 41.9079 125.075 42.1111C125.075 42.3235 125.125 42.5002 125.224 42.641C125.323 42.7795 125.468 42.8939 125.657 42.9838C125.826 43.0647 125.991 43.1351 126.152 43.1951C126.316 43.2529 126.474 43.3153 126.627 43.3823C126.765 43.4422 126.898 43.5104 127.025 43.5865C127.155 43.6627 127.266 43.7516 127.361 43.8532ZM133.466 42.4055C133.466 42.6617 133.415 42.8893 133.314 43.0877C133.215 43.284 133.076 43.4468 132.898 43.5761C132.723 43.7055 132.53 43.8002 132.32 43.8603C132.11 43.9201 131.887 43.9502 131.651 43.9502H131.1V45.4396C131.1 45.5204 131.113 45.5919 131.139 45.6543C131.166 45.7144 131.222 45.7605 131.305 45.7928C131.346 45.8091 131.419 45.8241 131.523 45.8379C131.629 45.8517 131.726 45.8598 131.814 45.8621V46.1081H129.705V45.8621C129.76 45.8575 129.84 45.8494 129.944 45.8379C130.05 45.8264 130.124 45.8114 130.165 45.7928C130.235 45.7628 130.284 45.719 130.314 45.6612C130.347 45.6036 130.363 45.5298 130.363 45.4396V41.8929C130.363 41.8121 130.351 41.7393 130.328 41.6746C130.305 41.6099 130.251 41.5615 130.165 41.5292C130.078 41.4992 129.99 41.4783 129.902 41.4668C129.817 41.453 129.743 41.4437 129.68 41.4391V41.1931H131.925C132.382 41.1931 132.753 41.3041 133.037 41.5257C133.323 41.7451 133.466 42.0383 133.466 42.4055ZM132.413 43.2438C132.492 43.1328 132.544 43.0184 132.569 42.9008C132.594 42.7806 132.607 42.6733 132.607 42.5786C132.607 42.447 132.591 42.313 132.559 42.1768C132.529 42.0406 132.476 41.9216 132.399 41.82C132.319 41.7115 132.212 41.6273 132.081 41.5672C131.949 41.5073 131.785 41.4773 131.589 41.4773H131.1V43.6489H131.454C131.703 43.6489 131.905 43.6107 132.06 43.5346C132.217 43.4561 132.335 43.3591 132.413 43.2438ZM137.6 46.1081H135.387V45.8621C135.449 45.8575 135.54 45.8506 135.657 45.8415C135.775 45.8321 135.858 45.8183 135.907 45.7997C135.983 45.7699 136.038 45.7294 136.073 45.6785C136.108 45.6255 136.125 45.5527 136.125 45.4605V41.8997C136.125 41.819 136.112 41.752 136.087 41.6988C136.061 41.6435 136.001 41.5972 135.907 41.5603C135.837 41.5325 135.75 41.5073 135.643 41.4841C135.54 41.4587 135.454 41.4437 135.387 41.4391V41.1931H137.6V41.4391C137.529 41.4414 137.443 41.4505 137.344 41.4668C137.245 41.4806 137.158 41.4992 137.084 41.5223C136.997 41.5499 136.938 41.5949 136.908 41.6573C136.878 41.7197 136.863 41.7889 136.863 41.8651V45.4223C136.863 45.4985 136.879 45.5667 136.911 45.6266C136.946 45.6844 137.004 45.7305 137.084 45.7651C137.133 45.7837 137.211 45.8045 137.32 45.8275C137.431 45.8483 137.524 45.8598 137.6 45.8621V46.1081ZM143.629 42.5267H143.39C143.369 42.4436 143.331 42.3454 143.276 42.2323C143.223 42.1167 143.163 42.0082 143.096 41.9066C143.027 41.8004 142.95 41.708 142.867 41.6296C142.786 41.5488 142.708 41.5025 142.632 41.491C142.56 41.4818 142.47 41.475 142.361 41.4704C142.253 41.4656 142.153 41.4633 142.06 41.4633H141.859V45.3946C141.859 45.4707 141.876 45.5412 141.908 45.6059C141.94 45.6683 141.997 45.7167 142.077 45.7513C142.119 45.7676 142.206 45.7895 142.337 45.817C142.471 45.8448 142.575 45.8598 142.649 45.8621V46.1081H140.328V45.8621C140.393 45.8575 140.491 45.8483 140.623 45.8344C140.757 45.8206 140.849 45.8033 140.9 45.7824C140.976 45.7526 141.031 45.7098 141.066 45.6543C141.103 45.5967 141.122 45.5204 141.122 45.4256V41.4633H140.921C140.849 41.4633 140.76 41.4656 140.654 41.4704C140.548 41.4727 140.446 41.4795 140.349 41.491C140.273 41.5002 140.193 41.5465 140.11 41.6296C140.029 41.7105 139.954 41.8027 139.885 41.9066C139.816 42.0105 139.755 42.1215 139.701 42.2392C139.648 42.3546 139.611 42.4505 139.591 42.5267H139.348V41.1931H143.629V42.5267ZM150.029 46.1081H147.982V45.8621C148.162 45.8506 148.311 45.8275 148.429 45.7928C148.548 45.7582 148.609 45.7154 148.609 45.6647C148.609 45.6439 148.606 45.6186 148.602 45.5886C148.597 45.5585 148.59 45.532 148.581 45.5089L148.172 44.4075H146.451C146.386 44.569 146.333 44.71 146.291 44.83C146.252 44.9502 146.216 45.061 146.184 45.1626C146.154 45.2619 146.133 45.3426 146.122 45.405C146.11 45.4674 146.104 45.5181 146.104 45.5573C146.104 45.6497 146.177 45.7213 146.323 45.7722C146.468 45.8229 146.632 45.8529 146.814 45.8621V46.1081H144.965V45.8621C145.025 45.8575 145.1 45.8448 145.19 45.8241C145.28 45.801 145.354 45.7709 145.412 45.734C145.504 45.6716 145.575 45.6069 145.626 45.54C145.677 45.4707 145.727 45.3762 145.775 45.256C146.022 44.6395 146.295 43.9468 146.593 43.1778C146.891 42.409 147.156 41.7243 147.389 41.1238H147.666L149.305 45.3635C149.339 45.4534 149.379 45.5262 149.422 45.5817C149.466 45.637 149.528 45.6912 149.606 45.7444C149.659 45.7768 149.729 45.8045 149.814 45.8275C149.899 45.8483 149.971 45.8598 150.029 45.8621V46.1081ZM148.047 44.0992L147.303 42.1941L146.572 44.0992H148.047ZM155.569 44.6464L155.465 46.1081H151.624V45.8621C151.679 45.8575 151.759 45.8494 151.863 45.8379C151.969 45.8264 152.043 45.8114 152.085 45.7928C152.154 45.7628 152.204 45.719 152.234 45.6612C152.266 45.6036 152.282 45.5298 152.282 45.4396V41.9206C152.282 41.8419 152.268 41.7727 152.24 41.7128C152.215 41.6527 152.163 41.6041 152.085 41.5672C152.032 41.5396 151.957 41.5129 151.859 41.4877C151.765 41.4599 151.686 41.4437 151.624 41.4391V41.1931H153.699V41.4391C153.634 41.4414 153.55 41.4531 153.446 41.4737C153.344 41.4946 153.27 41.5129 153.224 41.5292C153.146 41.5569 153.091 41.6041 153.061 41.6711C153.034 41.738 153.02 41.8096 153.02 41.886V45.1868C153.02 45.3391 153.027 45.458 153.041 45.5435C153.057 45.6266 153.093 45.6912 153.148 45.7376C153.201 45.7791 153.28 45.8068 153.384 45.8206C153.49 45.8321 153.637 45.8379 153.827 45.8379C153.912 45.8379 154.001 45.8356 154.094 45.831C154.186 45.8264 154.274 45.817 154.357 45.8033C154.438 45.7895 154.511 45.7709 154.578 45.7478C154.648 45.7225 154.699 45.6912 154.731 45.6543C154.826 45.5481 154.935 45.3877 155.06 45.173C155.187 44.9558 155.275 44.7803 155.323 44.6464H155.569Z" fill="#3D3D3D"></path><path fill-rule="evenodd" clip-rule="evenodd" d="M3.81965 0C1.71011 0 0 1.71011 0 3.81965V25.036C0 38.863 11.209 50.0721 25.036 50.0721C38.863 50.0721 50.0721 38.863 50.0721 25.036V3.81965C50.0721 1.71011 48.3619 0 46.2524 0H3.81965ZM32.8677 30.9219C33.4999 30.2696 35.1797 28.5362 36.6022 29.1573L36.6004 29.1563C37.5698 29.5801 38.217 31.0909 37.9325 32.2657C37.4831 34.1211 34.8999 34.9141 31.6298 35.5928C31.318 36.5117 31.0683 37.5908 30.927 38.8545L31.7127 38.0401C31.9699 37.7735 32.3882 37.7735 32.6454 38.0401C32.9026 38.3067 32.9026 38.7402 32.6454 39.0069L30.6133 41.1133C30.6126 41.1146 30.6115 41.1155 30.6106 41.1163C30.6102 41.1166 30.6098 41.1169 30.6095 41.1172L30.5813 41.1436C30.578 41.1465 30.5747 41.1497 30.5714 41.1528C30.5681 41.156 30.5648 41.1592 30.5615 41.1621C30.556 41.1667 30.5505 41.1709 30.545 41.175C30.5411 41.1779 30.5371 41.1807 30.5332 41.1836C30.5223 41.1918 30.511 41.1999 30.4994 41.2075C30.4929 41.2118 30.4862 41.2159 30.4795 41.2197C30.471 41.2246 30.4635 41.2305 30.456 41.2344C30.4465 41.2393 30.4371 41.2432 30.4277 41.2481C30.4238 41.2499 30.42 41.2519 30.4163 41.2538C30.4101 41.2571 30.404 41.2603 30.3975 41.2627C30.3891 41.2666 30.3806 41.2695 30.3721 41.2725C30.366 41.2744 30.3601 41.2766 30.3542 41.2788C30.3483 41.281 30.3424 41.2832 30.3363 41.2852C30.3305 41.2865 30.3251 41.2879 30.3198 41.2892L30.3128 41.291C30.3075 41.2923 30.3021 41.2937 30.2966 41.2952C30.2892 41.2971 30.2817 41.2991 30.2741 41.3008C30.2694 41.3019 30.2644 41.3027 30.2594 41.3033C30.2554 41.3038 30.2515 41.3043 30.2478 41.3047C30.2355 41.3066 30.2233 41.3096 30.211 41.3106C30.1931 41.3125 30.1743 41.3135 30.1564 41.3135H30.1469H30.13L30.1278 41.3132C30.1221 41.3123 30.117 41.3115 30.1111 41.3115C30.107 41.3112 30.1028 41.311 30.0985 41.3108C30.0901 41.3103 30.0816 41.3099 30.0735 41.3086L30.071 41.3083C30.0623 41.3074 30.0529 41.3065 30.0443 41.3047C30.033 41.3037 30.0216 41.3018 30.0103 41.2988C30 41.2969 29.9896 41.2939 29.9793 41.291C29.9689 41.2881 29.9585 41.2852 29.9482 41.2812C29.9378 41.2783 29.9284 41.2744 29.918 41.2705C29.9077 41.2666 29.8982 41.2627 29.8879 41.2578C29.8784 41.2539 29.869 41.249 29.8596 41.2441C29.8502 41.2393 29.8398 41.2344 29.8304 41.2285C29.821 41.2236 29.8116 41.2178 29.8031 41.2119C29.7937 41.2061 29.7842 41.2002 29.7748 41.1934C29.7654 41.1875 29.7569 41.1807 29.7485 41.1739L29.7484 41.1738L29.723 41.1533L29.6976 41.1299C29.6947 41.127 29.6919 41.1245 29.6891 41.1221C29.6863 41.1196 29.6834 41.1172 29.6806 41.1143L27.6485 39.0078C27.3913 38.7412 27.3913 38.3076 27.6485 38.041C27.9057 37.7744 28.324 37.7744 28.5812 38.041L29.5789 39.0752C29.691 37.877 29.8935 36.8184 30.1554 35.8867C30.0263 35.9122 29.8963 35.9372 29.7653 35.9623C29.7053 35.9738 29.645 35.9854 29.5845 35.9971L29.5226 36.009C28.4045 36.2241 27.2444 36.4472 26.1279 36.708C25.8246 37.1699 25.5071 37.6113 25.1755 38.0322C23.8518 39.7119 22.3303 40.9854 21.0029 41.5244C20.3641 41.7842 19.7273 42 19.1969 42C18.8012 42 18.4658 41.8809 18.2312 41.5703C17.681 40.8408 18.2642 39.7813 18.9076 38.8418C19.1799 38.4444 19.521 38.0879 19.9176 37.7666C18.0023 37.8125 15.9447 37.5088 14.2339 36.9131C11.6553 36.0166 9.9586 34.5391 9.3274 32.6407C8.98824 31.6231 8.90816 30.4122 9.10789 29.3204C9.34153 28.0372 9.92752 26.9835 10.8008 26.2755C12.2668 25.086 14.379 24.962 16.3376 25.795C15.5038 23.9278 14.8623 21.5724 14.9857 18.8585C15.0893 16.5773 15.7356 14.0245 16.7144 12.0304C17.9194 9.57533 19.471 8.18862 21.2026 8.0187C23.425 7.80092 26.2269 9.5226 27.7342 11.2511L27.7634 11.285C27.8126 11.342 27.8515 11.3871 27.8784 11.4191C29.984 13.9083 30.9468 17.298 30.7424 21.4952C30.5776 24.8771 29.7089 27.9479 29.1897 29.7832L29.1888 29.7862C28.8365 31.0313 28.422 32.2051 27.9481 33.3028C29.04 32.4248 29.9557 31.4688 30.6887 30.5879C32.9318 27.8946 34.8104 24.2716 35.7157 20.8966C36.3375 18.5792 37.3776 14.6993 35.3125 12.2804C33.8956 10.6212 31.5959 10.3634 30.3504 10.3576C29.9858 10.3556 29.6919 10.049 29.6938 9.67103C29.6957 9.29408 29.9906 8.99037 30.3533 8.99037H30.3561C33.7703 9.00697 35.5452 10.4913 36.2998 11.3742C38.8407 14.3487 37.6348 18.8468 36.9866 21.2628C36.0172 24.876 34.0859 28.6006 31.6873 31.4815C30.5662 32.8291 29.3603 33.9707 28.0903 34.8965C28.5077 34.8145 28.9269 34.7334 29.3443 34.6534C29.4021 34.6422 29.4601 34.631 29.5182 34.6198C29.8972 34.5467 30.281 34.4727 30.6642 34.3965C31.3114 32.8018 32.1291 31.6846 32.8677 30.9219ZM19.4145 40.6113C19.6199 40.5742 19.9628 40.4795 20.5215 40.252H20.5224C21.4184 39.8877 22.7486 38.9463 24.1043 37.2471C22.2568 37.8154 20.7193 38.5576 19.9835 39.6328C19.6576 40.1084 19.4955 40.419 19.4145 40.6113ZM20.8682 36.3418C22.6902 36.1631 24.3153 35.5821 25.737 34.7959L25.7388 34.7969C26.5547 33.336 27.3169 31.5528 27.9255 29.4024L27.9286 29.3913C28.4311 27.6127 29.2702 24.6428 29.4272 21.4268C29.6137 17.5968 28.7592 14.5333 26.8882 12.3214C26.8816 12.3137 26.8743 12.3051 26.8662 12.2956C26.8384 12.2629 26.8018 12.2198 26.7573 12.1691C25.2612 10.4533 22.8767 9.22865 21.327 9.38002C18.6881 9.63783 16.4977 14.631 16.3027 18.9229C16.1397 22.5098 17.4587 25.4219 18.6439 27.2813L18.7456 27.1788L18.8869 27.0352L19.0348 26.8858L19.4465 26.4678L19.5662 26.3467L19.7386 26.171L19.8253 26.0831L19.9374 25.9698L19.9402 25.9659H19.9411L19.9562 25.9512L19.9788 25.9278L19.9798 25.9268L19.9864 25.92C20.2464 25.6573 20.6618 25.6622 20.9162 25.9298C21.1715 26.1973 21.1696 26.628 20.9134 26.8936L20.9068 26.9005L20.8766 26.9307L20.8672 26.9405L20.7504 27.0596H20.7495L20.4894 27.3233V27.3243L20.3689 27.4464L20.3641 27.4512L19.6679 28.1592H19.667L19.5558 28.2725L20.5601 29.334H20.561L20.6392 29.417L20.7259 29.5088L20.8408 29.6299L20.8512 29.6407L20.8522 29.6417L20.8757 29.667L20.8823 29.6739L20.8842 29.6758C21.1367 29.9473 21.1291 30.379 20.8682 30.6416C20.74 30.7696 20.5818 30.834 20.4094 30.834C20.237 30.834 20.0655 30.7647 19.9364 30.627C19.9355 30.627 19.9345 30.625 19.9345 30.625L19.9157 30.6045H19.9138V30.6026L19.9119 30.6006L19.8987 30.586L19.7838 30.4639L19.6981 30.3731L19.618 30.2891L19.6171 30.2881L19.2364 29.8858L19.1903 29.835H19.1893L19.1875 29.8331L18.6147 29.2266L17.258 30.6026C17.1299 30.7325 16.9679 30.7979 16.7964 30.7979C16.6249 30.7979 16.4544 30.7295 16.3253 30.5928C16.07 30.3233 16.0747 29.8907 16.3348 29.626L16.8548 29.0977L17.0677 28.8809H17.0687L17.6782 28.2618C16.722 27.379 15.5717 26.8126 14.4261 26.6651C14.2235 26.6387 14.0238 26.626 13.8288 26.626C12.9705 26.626 12.1989 26.876 11.6129 27.3516C10.2573 28.4512 10.0651 30.668 10.5729 32.1944C11.1965 34.0664 13.1354 35.0889 14.6531 35.6172C16.5241 36.2686 18.8474 36.5391 20.8682 36.3418ZM32.277 34.0547C34.5202 33.541 36.4204 32.9014 36.655 31.9336V31.9346C36.7982 31.3418 36.4072 30.5557 36.0897 30.417C36.0615 30.4043 36.0144 30.3916 35.9465 30.3916C35.6743 30.3916 35.0487 30.5997 33.7985 31.8907C33.2992 32.4063 32.7594 33.1094 32.277 34.0547Z" fill="#B084CC"></path></g><defs><clipPath id="clip0_1473_1262"><rect width="156.267" height="50.0721" fill="white"></rect></clipPath></defs></svg>