<svg xmlns="http://www.w3.org/2000/svg" width="126" height="58" viewBox="0 0 126 58" fill="none"><g clip-path="url(#clip0_1715_117)"><path d="M55.703 14.9549C56.345 15.1682 56.9614 15.4519 57.541 15.8009C57.7536 15.9182 57.943 16.0155 58.109 16.0929C58.2403 16.1617 58.3849 16.2013 58.533 16.2089C58.6239 16.205 58.7116 16.1737 58.7844 16.1191C58.8572 16.0645 58.9118 15.9891 58.941 15.9029C59.0652 15.5901 59.1437 15.261 59.174 14.9259H59.845C59.7476 16.2285 59.699 18.4452 59.699 21.5759H59.028C58.9532 20.5438 58.7118 19.5307 58.313 18.5759C57.9526 17.6711 57.3708 16.8713 56.621 16.2499C55.9025 15.6604 54.9982 15.3451 54.069 15.3599C53.223 15.322 52.3944 15.6081 51.752 16.1599C51.4541 16.4352 51.2201 16.7724 51.0664 17.1478C50.9126 17.5232 50.8429 17.9277 50.862 18.3329C50.8471 18.9543 50.9983 19.5684 51.3 20.1119C51.6171 20.6468 52.0328 21.1168 52.525 21.4969C53.0496 21.9149 53.8566 22.4839 54.946 23.2039L55.879 23.8449C56.8209 24.4527 57.7265 25.1152 58.591 25.8289C59.2436 26.3833 59.7916 27.0502 60.209 27.7979C60.6401 28.599 60.8561 29.4983 60.836 30.4079C60.874 31.5306 60.5354 32.6338 59.874 33.5419C59.2006 34.411 58.2961 35.073 57.264 35.4519C56.0947 35.8923 54.8534 36.1101 53.604 36.0939C52.6912 36.1137 51.7796 36.0156 50.892 35.8019C50.2019 35.6196 49.5362 35.3554 48.909 35.0149C48.6194 34.7954 48.2781 34.6545 47.918 34.6059C47.8268 34.6094 47.7389 34.6406 47.6659 34.6952C47.5928 34.7499 47.5381 34.8254 47.509 34.9119C47.3846 35.2246 47.3061 35.5537 47.276 35.8889H46.605C46.6823 34.6642 46.7216 32.0395 46.723 28.0149H47.393C47.4379 29.8719 47.9382 31.6894 48.85 33.3079C49.2466 33.964 49.8147 34.4996 50.4931 34.857C51.1715 35.2143 51.9345 35.3799 52.7 35.3359C53.6399 35.3737 54.5623 35.0736 55.3 34.4899C55.6447 34.1919 55.9161 33.8184 56.0932 33.3986C56.2703 32.9787 56.3482 32.5237 56.321 32.0689C56.3418 31.0356 55.9661 30.0336 55.271 29.2689C54.2764 28.258 53.157 27.3779 51.94 26.6499C50.7727 25.8919 49.8393 25.2309 49.14 24.6669C48.4478 24.1124 47.8646 23.4342 47.42 22.6669C46.9604 21.8537 46.7286 20.9317 46.749 19.9979C46.7153 18.9406 47.0278 17.9012 47.639 17.0379C48.2422 16.2255 49.0673 15.6046 50.015 15.2499C51.0576 14.8516 52.166 14.6535 53.282 14.6659C54.099 14.6411 54.9151 14.7392 55.703 14.9569M82.682 34.6419C82.9418 34.9007 83.2808 35.0651 83.645 35.1089V35.6919C82.4783 35.6339 81.0006 35.6045 79.212 35.6039C77.2293 35.6039 75.7513 35.6332 74.778 35.6919V35.1089C75.3155 35.1089 75.8489 35.0148 76.354 34.8309C76.5019 34.7661 76.6263 34.6571 76.7099 34.5189C76.7935 34.3807 76.8323 34.22 76.821 34.0589C76.7888 33.5748 76.6696 33.1005 76.469 32.6589L74.72 27.8759H68.36L67.602 29.8879C67.1471 30.9123 66.8711 32.0072 66.786 33.1249C66.7549 33.4104 66.799 33.6991 66.9141 33.9623C67.0292 34.2254 67.2112 34.4539 67.442 34.6249C68.0365 34.9494 68.7047 35.1154 69.382 35.1069V35.6899C68.0593 35.6319 66.854 35.6025 65.766 35.6019C64.8706 35.6019 64.1317 35.6312 63.549 35.6899V35.1069C64.5043 34.9355 65.3403 33.9165 66.057 32.0499L72.706 14.9889C72.92 15.0089 73.259 15.0179 73.726 15.0179C74.193 15.0179 74.526 15.0079 74.718 14.9889L81.805 33.2459C81.9852 33.7736 82.2846 34.2526 82.68 34.6459M74.514 27.2959L71.626 19.4219L68.593 27.2959H74.514ZM101.582 19.4759C101.582 20.3899 101.611 21.1285 101.67 21.6919H101C100.821 20.0227 100.219 18.4269 99.25 17.0559C98.8397 16.6027 98.3334 16.247 97.7679 16.0148C97.2025 15.7826 96.5923 15.6798 95.982 15.7139H95.02C94.5777 15.6938 94.135 15.7431 93.708 15.8599C93.5773 15.9042 93.4589 15.9789 93.3626 16.0778C93.2663 16.1767 93.1948 16.297 93.154 16.4289C93.0365 16.8708 92.9869 17.328 93.007 17.7849V25.1349H94.029C94.4848 25.16 94.9394 25.0687 95.3502 24.8696C95.761 24.6705 96.1143 24.3702 96.377 23.9969C96.9354 23.1808 97.3173 22.2571 97.498 21.2849H98.17C98.1113 22.1009 98.082 23.0145 98.082 24.0259V25.4259C98.082 26.4172 98.1407 27.7979 98.258 29.5679H97.582C97.1733 27.0005 95.9876 25.7172 94.025 25.7179H93.003V32.4259C92.9706 33.0057 93.0549 33.5862 93.251 34.1329C93.3328 34.3107 93.4541 34.4675 93.6058 34.5912C93.7574 34.715 93.9354 34.8024 94.126 34.8469C94.7829 34.9891 95.4539 35.0562 96.126 35.0469V35.6889C93.734 35.6309 91.955 35.6015 90.789 35.6009C89.8163 35.6009 88.5913 35.6202 87.114 35.6589L86.18 35.6879V35.1049C86.6603 35.0944 87.1367 35.016 87.595 34.8719C87.7425 34.8158 87.8747 34.7259 87.981 34.6094C88.0873 34.4928 88.1647 34.3529 88.207 34.2009C88.3353 33.6777 88.3895 33.1391 88.368 32.6009V18.1349C88.3894 17.5966 88.3352 17.058 88.207 16.5349C88.1652 16.3827 88.0879 16.2425 87.9815 16.1259C87.8752 16.0093 87.7427 15.9195 87.595 15.8639C87.1368 15.7193 86.6603 15.6409 86.18 15.6309V15.0469C88.28 15.1055 91.4493 15.1349 95.688 15.1349C98.546 15.1349 100.579 15.1055 101.788 15.0469C101.655 16.7002 101.588 18.1779 101.588 19.4799M121.975 35.6949C120.652 35.6369 118.426 35.6075 115.295 35.6069C111.058 35.6069 107.889 35.6362 105.788 35.6949V35.1119C106.268 35.1013 106.744 35.0228 107.202 34.8789C107.349 34.8227 107.482 34.7327 107.588 34.6162C107.694 34.4997 107.772 34.3598 107.814 34.2079C107.943 33.6848 107.998 33.1462 107.976 32.6079V18.1349C107.998 17.5966 107.943 17.0579 107.814 16.5349C107.772 16.3829 107.694 16.2429 107.588 16.1264C107.482 16.0098 107.349 15.9199 107.202 15.8639C106.744 15.7195 106.268 15.641 105.788 15.6309V15.0469C107.888 15.1055 111.057 15.1349 115.295 15.1349C118.154 15.1349 120.187 15.1055 121.395 15.0469C121.262 16.6609 121.195 18.0999 121.195 19.3639C121.186 20.026 121.215 20.6881 121.282 21.3469H120.611C120.513 19.7689 119.967 18.2515 119.037 16.9729C118.625 16.5441 118.124 16.2099 117.57 15.9934C117.016 15.7769 116.422 15.6832 115.828 15.7189H114.628C114.186 15.6991 113.743 15.7483 113.316 15.8649C113.185 15.9094 113.067 15.9841 112.971 16.083C112.875 16.1819 112.804 16.3021 112.763 16.4339C112.645 16.8758 112.596 17.333 112.616 17.7899V25.0219H113.55C114.003 25.0435 114.455 24.9501 114.863 24.7505C115.27 24.5508 115.621 24.2513 115.882 23.8799C116.441 23.064 116.823 22.1402 117.004 21.1679H117.675C117.617 21.9852 117.588 22.8992 117.587 23.9099V25.3099C117.587 26.3019 117.645 27.6825 117.762 29.4519H117.091C116.682 26.8852 115.497 25.6019 113.534 25.6019H112.6V32.9499C112.58 33.4064 112.629 33.8633 112.747 34.3049C112.788 34.4367 112.859 34.557 112.955 34.6559C113.051 34.7548 113.169 34.8295 113.3 34.8739C113.727 34.9904 114.17 35.0397 114.612 35.0199H116.041C116.667 35.0437 117.291 34.9293 117.869 34.6848C118.446 34.4402 118.962 34.0715 119.381 33.6049C120.411 32.2016 121.032 30.54 121.175 28.8049H121.846C121.788 29.4469 121.759 30.2635 121.758 31.2549C121.741 32.7348 121.808 34.2145 121.958 35.6869" fill="#231F20"></path><path d="M30.299 11.9C30.299 14.2535 29.6011 16.5541 28.2937 18.511C26.9862 20.4679 25.1279 21.9931 22.9536 22.8939C20.7793 23.7946 18.3868 24.0305 16.0785 23.5716C13.7702 23.1126 11.6498 21.9796 9.98546 20.3156C8.32109 18.6517 7.18749 16.5316 6.72799 14.2234C6.26849 11.9152 6.50372 9.52264 7.40394 7.34815C8.30416 5.17365 9.82895 3.31492 11.7855 2.00697C13.742 0.699021 16.0425 0.000593312 18.396 0C21.552 0 24.5789 1.25375 26.8105 3.48543C29.0422 5.71711 30.296 8.74392 30.296 11.9" fill="#231F20"></path><path d="M31.524 18.4514C31.4612 18.3738 31.3792 18.3139 31.2862 18.2776C31.1932 18.2413 31.0923 18.2299 30.9935 18.2444C30.8947 18.2589 30.8014 18.2989 30.7227 18.3605C30.6441 18.422 30.5829 18.503 30.545 18.5954C28.86 22.5834 23.519 26.2734 18.605 26.2184C16.3082 26.2309 14.0452 25.6652 12.0244 24.5733C10.0037 23.4814 8.29027 21.8985 7.04202 19.9704C6.99909 19.8952 6.9394 19.831 6.86759 19.7826C6.79577 19.7342 6.71377 19.7031 6.62795 19.6916C6.54214 19.6801 6.45482 19.6885 6.3728 19.7162C6.29077 19.7439 6.21625 19.7902 6.15502 19.8514C2.10543 24.0572 -0.10844 29.6989 2.11485e-05 35.5364C2.11485e-05 47.6164 8.23602 57.4134 18.4 57.4134C28.564 57.4134 36.8 47.6134 36.8 35.5324C36.8 29.3854 34.933 22.5754 31.533 18.4514M27.34 27.8814C28.0907 27.9259 28.8118 28.1893 29.4146 28.6389C30.0173 29.0885 30.4752 29.7047 30.7318 30.4115C30.9885 31.1183 31.0325 31.8848 30.8586 32.6164C30.6847 33.3479 30.3004 34.0126 29.7532 34.5283C29.2059 35.044 28.5197 35.3882 27.7791 35.5185C27.0385 35.6487 26.276 35.5593 25.5856 35.2612C24.8952 34.9632 24.3072 34.4696 23.8942 33.8412C23.4811 33.2129 23.261 32.4774 23.261 31.7254C23.2932 30.6751 23.7407 29.6805 24.5055 28.9598C25.2702 28.2391 26.2896 27.8513 27.34 27.8814ZM18.3 43.6614C18.1224 43.6828 17.9425 43.6488 17.7849 43.564C17.6273 43.4793 17.4998 43.348 17.4196 43.1881C17.3394 43.0282 17.3105 42.8474 17.3369 42.6704C17.3633 42.4935 17.4437 42.329 17.567 42.1994C19.2161 40.2388 20.1604 37.7819 20.249 35.2214C20.2606 35.0556 20.3195 34.8966 20.4188 34.7633C20.5181 34.63 20.6536 34.5281 20.8091 34.4695C20.9647 34.4109 21.1338 34.3983 21.2963 34.433C21.4588 34.4677 21.608 34.5484 21.726 34.6654C23.649 36.5424 27.478 38.8654 32.939 35.5764C33.1305 35.4617 33.359 35.4254 33.5766 35.475C33.7943 35.5247 33.9844 35.6564 34.1072 35.8429C34.2301 36.0293 34.2761 36.256 34.2359 36.4756C34.1956 36.6952 34.072 36.8907 33.891 37.0214C32.03 38.3634 25.605 42.6544 18.3 43.6614Z" fill="#231F20"></path><path d="M48.605 42.834C48.9415 43.0111 49.2245 43.2749 49.425 43.598L48.813 44.151C48.7025 43.8854 48.5187 43.6568 48.283 43.492C48.0256 43.3457 47.7316 43.2763 47.436 43.292C47.1512 43.2748 46.8682 43.3476 46.627 43.5C46.538 43.5577 46.465 43.6368 46.4147 43.7302C46.3644 43.8235 46.3383 43.928 46.339 44.034C46.3382 44.1318 46.3638 44.228 46.4131 44.3124C46.4623 44.3969 46.5335 44.4665 46.619 44.514C46.9318 44.6739 47.2703 44.7778 47.619 44.821C47.9871 44.8779 48.3467 44.981 48.689 45.128C48.9212 45.2247 49.1217 45.3844 49.268 45.589C49.395 45.7943 49.4584 46.0327 49.45 46.274C49.4547 46.5521 49.3663 46.8238 49.199 47.046C49.0181 47.2782 48.7755 47.455 48.499 47.556C48.1666 47.6803 47.8138 47.7407 47.459 47.734C47.0423 47.772 46.623 47.697 46.2453 47.5168C45.8677 47.3366 45.5456 47.0578 45.313 46.71L45.881 46.143C46.0194 46.4212 46.2363 46.6528 46.505 46.809C46.7986 46.959 47.1255 47.032 47.455 47.021C47.7476 47.036 48.0389 46.9718 48.298 46.835C48.3927 46.7842 48.4716 46.7082 48.5258 46.6153C48.58 46.5225 48.6074 46.4165 48.605 46.309C48.6035 46.2176 48.577 46.1283 48.5283 46.0509C48.4797 45.9735 48.4107 45.9109 48.329 45.87C48.0258 45.7189 47.7003 45.6176 47.365 45.57C46.9867 45.5095 46.6172 45.4027 46.265 45.252C46.0269 45.1539 45.8209 44.9915 45.67 44.783C45.5429 44.5819 45.4782 44.3478 45.484 44.11C45.482 43.8347 45.564 43.5654 45.719 43.338C45.8891 43.0947 46.1235 42.9036 46.396 42.786C46.7214 42.6452 47.0735 42.5769 47.428 42.586C47.8346 42.5745 48.2381 42.6602 48.605 42.836" fill="#231F20"></path><path d="M51.847 42.6602H51.037V47.6532H51.847V42.6602Z" fill="#231F20"></path><path d="M57.876 47.6542H56.916L54.986 44.5072L54.503 43.5842H54.495L54.525 44.4312V47.6542H53.783V42.6602H54.737L56.659 45.7992L57.15 46.7302H57.158L57.128 45.8832V42.6602H57.877L57.876 47.6542Z" fill="#231F20"></path><path d="M63.169 47.3656C62.7849 47.6129 62.3356 47.7393 61.879 47.7286C61.4422 47.7393 61.0107 47.6318 60.63 47.4176C60.2743 47.2085 59.9897 46.8974 59.813 46.5246C59.6231 46.093 59.525 45.6267 59.525 45.1551C59.525 44.6836 59.6231 44.2172 59.813 43.7856C59.9902 43.4131 60.2747 43.1022 60.63 42.8926C61.0153 42.6893 61.4443 42.583 61.88 42.583C62.3156 42.583 62.7447 42.6893 63.13 42.8926C63.4739 43.1039 63.7342 43.4275 63.867 43.8086L63.104 44.1486C63.029 43.8901 62.8752 43.6615 62.664 43.4946C62.4431 43.3467 62.1806 43.2735 61.915 43.2856C61.7021 43.278 61.4903 43.3191 61.2957 43.4058C61.1011 43.4924 60.9288 43.6223 60.792 43.7856C60.4916 44.1784 60.3425 44.6661 60.372 45.1596C60.3415 45.6511 60.4829 46.138 60.772 46.5366C60.9064 46.6995 61.0771 46.8287 61.2703 46.9139C61.4636 46.9992 61.674 47.0381 61.885 47.0276C62.1769 47.0445 62.4654 46.9583 62.7003 46.7841C62.9351 46.6099 63.1013 46.3588 63.17 46.0746L63.943 46.3316C63.8099 46.7556 63.5362 47.1214 63.167 47.3686" fill="#231F20"></path><path d="M69.158 46.9582V47.6582H65.435V42.6602H69.051V43.3602H66.245V44.7912H68.439V45.4722H66.245V46.9552L69.158 46.9582Z" fill="#231F20"></path><path d="M73.401 47.0561C73.931 46.6942 74.441 46.304 74.929 45.8871C75.2324 45.6353 75.4964 45.3393 75.712 45.0091C75.8657 44.7627 75.9481 44.4785 75.95 44.1881C75.955 44.0682 75.9351 43.9485 75.8915 43.8366C75.848 43.7247 75.7818 43.6231 75.697 43.5381C75.4932 43.3668 75.2326 43.2781 74.9666 43.2894C74.7006 43.3007 74.4485 43.4112 74.26 43.5991C74.0615 43.843 73.9509 44.1467 73.946 44.4611L73.246 44.1351C73.2743 43.6991 73.4725 43.2916 73.798 43.0001C74.1507 42.7107 74.5982 42.5625 75.054 42.5841C75.3764 42.5763 75.6959 42.6481 75.984 42.7931C76.2339 42.9192 76.4423 43.1146 76.584 43.3561C76.7202 43.6004 76.7892 43.8764 76.784 44.1561C76.7743 44.6615 76.5854 45.147 76.251 45.5261C75.7347 46.0932 75.1368 46.5803 74.477 46.9711V46.9861C74.7296 46.9654 75.0046 46.9551 75.302 46.9551H76.87V47.6551H73.401V47.0561Z" fill="#231F20"></path><path d="M78.708 47.0749C78.3882 46.4862 78.2206 45.8268 78.2206 45.1569C78.2206 44.4869 78.3882 43.8276 78.708 43.2389C78.8863 43.033 79.1069 42.8679 79.3546 42.7547C79.6024 42.6416 79.8716 42.583 80.144 42.583C80.4164 42.583 80.6856 42.6416 80.9333 42.7547C81.1811 42.8679 81.4016 43.033 81.58 43.2389C81.9024 43.8267 82.0714 44.4864 82.0714 45.1569C82.0714 45.8273 81.9024 46.487 81.58 47.0749C81.4016 47.2807 81.1811 47.4458 80.9333 47.559C80.6856 47.6721 80.4164 47.7307 80.144 47.7307C79.8716 47.7307 79.6024 47.6721 79.3546 47.559C79.1069 47.4458 78.8863 47.2807 78.708 47.0749ZM80.966 46.5679C81.3396 45.6646 81.3396 44.6501 80.966 43.7469C80.8864 43.599 80.7671 43.4764 80.6215 43.3928C80.4759 43.3092 80.3098 43.268 80.142 43.2739C79.4086 43.2739 79.042 43.9019 79.042 45.1579C79.042 46.4139 79.4086 47.0415 80.142 47.0409C80.3098 47.0467 80.4759 47.0055 80.6215 46.922C80.7671 46.8384 80.8864 46.7157 80.966 46.5679Z" fill="#231F20"></path><path d="M83.912 47.0749C83.5922 46.4862 83.4247 45.8268 83.4247 45.1569C83.4247 44.4869 83.5922 43.8276 83.912 43.2389C84.0904 43.033 84.3109 42.8679 84.5587 42.7547C84.8064 42.6416 85.0756 42.583 85.348 42.583C85.6204 42.583 85.8896 42.6416 86.1374 42.7547C86.3851 42.8679 86.6057 43.033 86.784 43.2389C87.1064 43.8267 87.2754 44.4864 87.2754 45.1569C87.2754 45.8273 87.1064 46.487 86.784 47.0749C86.6057 47.2807 86.3851 47.4458 86.1374 47.559C85.8896 47.6721 85.6204 47.7307 85.348 47.7307C85.0756 47.7307 84.8064 47.6721 84.5587 47.559C84.3109 47.4458 84.0904 47.2807 83.912 47.0749ZM86.17 46.5679C86.5436 45.6646 86.5436 44.6501 86.17 43.7469C86.0905 43.599 85.9711 43.4764 85.8255 43.3928C85.6799 43.3092 85.5138 43.268 85.346 43.2739C84.6127 43.2739 84.246 43.9019 84.246 45.1579C84.246 46.4139 84.6127 47.0415 85.346 47.0409C85.5138 47.0467 85.6799 47.0055 85.8255 46.922C85.9711 46.8384 86.0905 46.7157 86.17 46.5679Z" fill="#231F20"></path><path d="M92.125 42.6602V43.3352C91.5503 43.9047 91.0975 44.5851 90.794 45.3352C90.5141 46.0769 90.3754 46.8644 90.385 47.6572H89.56C89.5566 46.8745 89.7032 46.0985 89.992 45.3712C90.2947 44.6298 90.7332 43.9515 91.285 43.3712H88.32V42.6712L92.125 42.6602Z" fill="#231F20"></path></g><defs><clipPath id="clip0_1715_117"><rect width="125.515" height="57.413" fill="white"></rect></clipPath></defs></svg>