<svg xmlns="http://www.w3.org/2000/svg" width="95" height="28" fill="none"><path fill="#C06428" d="M55.088 26.026a.097.097 0 0 1-.03.07.206.206 0 0 1-.105.048 1.644 1.644 0 0 1-.199.031 3.622 3.622 0 0 1-.304.012c-.12 0-.235 0-.315-.012a1.727 1.727 0 0 1-.196-.031.205.205 0 0 1-.105-.048.093.093 0 0 1-.03-.07V23.12h-4.425v2.905a.095.095 0 0 1-.03.07.216.216 0 0 1-.105.048 1.756 1.756 0 0 1-.199.031 3.747 3.747 0 0 1-.313.012c-.125 0-.222 0-.307-.012a1.637 1.637 0 0 1-.203-.031.206.206 0 0 1-.105-.048.097.097 0 0 1-.03-.07v-6.287a.097.097 0 0 1 .03-.07.204.204 0 0 1 .105-.048c.067-.014.135-.024.203-.03.085-.008.188-.013.307-.013.12 0 .23 0 .313.013.067.006.133.016.199.03a.216.216 0 0 1 .105.048.096.096 0 0 1 .03.07v2.622h4.425v-2.622a.097.097 0 0 1 .03-.07.205.205 0 0 1 .105-.048c.065-.014.13-.024.196-.03.105-.01.21-.014.315-.013.12 0 .222.005.304.013.067.006.134.016.199.03.04.006.076.022.106.048a.097.097 0 0 1 .03.07v6.287ZM63.047 23.702c.004.354-.07.704-.218 1.026-.15.317-.373.594-.65.807a3.187 3.187 0 0 1-1.081.528 5.385 5.385 0 0 1-1.508.19c-.49.008-.978-.048-1.453-.167a2.908 2.908 0 0 1-1.033-.486 1.989 1.989 0 0 1-.617-.774 2.518 2.518 0 0 1-.203-1.033 2.415 2.415 0 0 1 .214-1.023 2.16 2.16 0 0 1 .646-.809c.323-.243.69-.421 1.079-.525.492-.133 1-.197 1.51-.188.49-.008.978.048 1.454.168.372.091.723.256 1.032.485.267.202.48.468.62.774.142.323.214.673.208 1.027Zm-1.284.057a2.36 2.36 0 0 0-.103-.7 1.464 1.464 0 0 0-.337-.577 1.604 1.604 0 0 0-.638-.391 3.011 3.011 0 0 0-1-.143 3.068 3.068 0 0 0-.951.131 1.747 1.747 0 0 0-.657.373c-.17.157-.3.352-.383.57a2.02 2.02 0 0 0-.124.718 2.38 2.38 0 0 0 .102.705c.067.214.184.41.34.569.182.177.402.31.642.39.323.104.662.152 1.001.142.32.006.64-.038.947-.13.243-.075.468-.2.66-.37.17-.156.3-.352.378-.57.083-.23.125-.473.123-.717ZM68.75 24.79c.004.223-.064.44-.191.622-.144.195-.33.353-.546.462a3.031 3.031 0 0 1-.845.284 5.57 5.57 0 0 1-1.075.097 5.891 5.891 0 0 1-1.273-.135 3.91 3.91 0 0 1-.44-.121 1.474 1.474 0 0 1-.261-.114.284.284 0 0 1-.122-.143.683.683 0 0 1-.036-.247.761.761 0 0 1 .014-.162.394.394 0 0 1 .038-.106.133.133 0 0 1 .063-.058.25.25 0 0 1 .095-.019.734.734 0 0 1 .243.069c.109.047.241.095.399.142.185.061.373.111.563.15.245.048.495.07.744.068.192.001.383-.014.572-.046.153-.024.302-.07.442-.134a.743.743 0 0 0 .29-.224.529.529 0 0 0 .067-.502.415.415 0 0 0-.106-.146 1.395 1.395 0 0 0-.387-.233 3.968 3.968 0 0 0-.541-.18c-.2-.052-.407-.107-.62-.165a8.42 8.42 0 0 1-.624-.195 2.529 2.529 0 0 1-.544-.265 1.341 1.341 0 0 1-.387-.374.915.915 0 0 1-.141-.52.95.95 0 0 1 .153-.515c.119-.177.277-.323.463-.427.24-.136.5-.236.77-.296a4.655 4.655 0 0 1 1.078-.11 4.913 4.913 0 0 1 1.03.106c.125.025.25.058.371.098.08.026.157.058.233.094a.381.381 0 0 1 .105.071c.017.02.03.044.038.069a.754.754 0 0 1 .034.235.882.882 0 0 1-.011.142.306.306 0 0 1-.038.104.164.164 0 0 1-.063.058.202.202 0 0 1-.084.019.58.58 0 0 1-.195-.056 2.765 2.765 0 0 0-.33-.12 4.709 4.709 0 0 0-.477-.119 3.176 3.176 0 0 0-.627-.056 2.918 2.918 0 0 0-.557.049 1.306 1.306 0 0 0-.394.142.652.652 0 0 0-.233.21.46.46 0 0 0-.04.445.427.427 0 0 0 .11.15c.118.1.25.179.392.236.179.073.362.134.548.182l.627.166c.213.059.423.121.631.192.194.065.379.151.553.258a1.3 1.3 0 0 1 .374.363.86.86 0 0 1 .148.505ZM76.39 23.682a2.84 2.84 0 0 1-.192 1.073c-.123.31-.316.587-.564.807a2.555 2.555 0 0 1-.92.51 4.03 4.03 0 0 1-1.255.181c-.186.001-.371-.012-.555-.04a2.775 2.775 0 0 1-.5-.127 3.175 3.175 0 0 1-.484-.218 6.759 6.759 0 0 1-.512-.308v2.278a.097.097 0 0 1-.03.07.238.238 0 0 1-.097.052 1.085 1.085 0 0 1-.188.03c-.08 0-.182.01-.308.01-.125 0-.22 0-.3-.01a1.159 1.159 0 0 1-.192-.03.205.205 0 0 1-.098-.051.106.106 0 0 1-.026-.071v-6.363c-.001-.026.007-.051.022-.072a.183.183 0 0 1 .09-.048.814.814 0 0 1 .173-.029c.07 0 .155-.007.256-.007.1 0 .191 0 .259.007a.802.802 0 0 1 .169.029.217.217 0 0 1 .094.048.104.104 0 0 1 .027.073v.611c.206-.142.403-.264.593-.368.184-.103.376-.19.575-.26.192-.07.39-.123.593-.157.212-.037.427-.055.642-.054.426-.01.851.054 1.255.192.317.11.606.29.845.527.216.218.38.484.478.777.1.302.151.619.15.938Zm-1.285.096c0-.227-.027-.454-.08-.676a1.555 1.555 0 0 0-.271-.579 1.362 1.362 0 0 0-.519-.404 1.886 1.886 0 0 0-.808-.152c-.16 0-.32.015-.476.048a2.457 2.457 0 0 0-.476.15 3.654 3.654 0 0 0-.506.274 5.364 5.364 0 0 0-.564.419v1.81c.3.252.627.468.977.643.301.148.632.225.967.224.276.006.55-.046.805-.152.21-.091.396-.23.543-.406a1.66 1.66 0 0 0 .307-.57c.066-.205.1-.419.1-.634v.005ZM79.107 20.521a.372.372 0 0 1-.14.336c-.16.073-.336.103-.51.089a1 1 0 0 1-.5-.087.354.354 0 0 1-.141-.329.37.37 0 0 1 .14-.334c.16-.074.336-.105.51-.09a.994.994 0 0 1 .5.088.356.356 0 0 1 .141.328Zm.026 5.509a.094.094 0 0 1-.031.068.258.258 0 0 1-.098.048.936.936 0 0 1-.187.03c-.08.007-.183.01-.308.01-.126 0-.222 0-.3-.01a1.01 1.01 0 0 1-.192-.03.233.233 0 0 1-.099-.048.097.097 0 0 1-.025-.068v-4.555c0-.024.01-.047.025-.065a.218.218 0 0 1 .099-.052c.063-.015.127-.025.192-.03.078-.007.18-.01.3-.01s.228 0 .308.01c.063.005.126.015.188.03.035.01.069.027.097.052a.092.092 0 0 1 .03.065v4.555ZM84.96 25.695a.693.693 0 0 1-.032.234.239.239 0 0 1-.09.127.637.637 0 0 1-.18.075c-.09.027-.184.048-.278.061a5.105 5.105 0 0 1-.326.039c-.114.01-.231.014-.347.014a3.766 3.766 0 0 1-.901-.094 1.59 1.59 0 0 1-.616-.285 1.08 1.08 0 0 1-.35-.48 1.944 1.944 0 0 1-.108-.685v-2.662h-.947a.22.22 0 0 1-.18-.081.412.412 0 0 1-.067-.263.6.6 0 0 1 .018-.163.336.336 0 0 1 .05-.108.154.154 0 0 1 .078-.061.323.323 0 0 1 .109-.017h.94v-1.083c0-.025.008-.048.024-.066a.219.219 0 0 1 .1-.054.878.878 0 0 1 .19-.033c.08 0 .181-.01.3-.01.12 0 .229 0 .31.01a.823.823 0 0 1 .187.033c.036.01.07.029.097.054a.092.092 0 0 1 .03.066v1.083h1.736c.036 0 .071.005.105.017a.182.182 0 0 1 .078.061.264.264 0 0 1 .05.108.756.756 0 0 1 .015.163.412.412 0 0 1-.067.263.225.225 0 0 1-.18.081h-1.736v2.54a1.07 1.07 0 0 0 .206.71c.138.161.385.241.74.241.103.002.206-.006.307-.022a3.805 3.805 0 0 0 .422-.097.518.518 0 0 1 .14-.023c.025 0 .05.004.072.013.023.01.041.026.053.048.014.031.026.063.033.097.01.05.016.1.014.15ZM91.564 26.036a.1.1 0 0 1-.061.09.583.583 0 0 1-.165.046 2.408 2.408 0 0 1-.308.014 2.59 2.59 0 0 1-.312-.014.52.52 0 0 1-.169-.045.099.099 0 0 1-.052-.091v-.456a3.586 3.586 0 0 1-.986.495c-.372.12-.761.18-1.152.178a4.567 4.567 0 0 1-.967-.094 2.52 2.52 0 0 1-.735-.271 1.382 1.382 0 0 1-.473-.435 1.047 1.047 0 0 1-.17-.587 1.022 1.022 0 0 1 .225-.666c.182-.21.412-.371.669-.472.342-.14.7-.235 1.066-.284a9.72 9.72 0 0 1 1.42-.094h.931v-.355a1.23 1.23 0 0 0-.081-.465.79.79 0 0 0-.268-.336 1.28 1.28 0 0 0-.476-.202 3.237 3.237 0 0 0-.721-.07 4.213 4.213 0 0 0-.823.074 5.87 5.87 0 0 0-.64.163 7.21 7.21 0 0 0-.457.162.84.84 0 0 1-.282.072.24.24 0 0 1-.104-.02.193.193 0 0 1-.08-.06.248.248 0 0 1-.042-.106.625.625 0 0 1-.015-.142.588.588 0 0 1 .027-.201.3.3 0 0 1 .128-.142c.11-.064.228-.115.35-.154.184-.065.372-.12.563-.162.215-.049.45-.089.704-.121a6.12 6.12 0 0 1 .775-.049c.416-.006.831.03 1.24.111.293.056.573.167.825.328.2.13.359.315.46.533.098.235.146.488.14.743l.016 3.085Zm-1.233-2.081h-1.06a5.928 5.928 0 0 0-.885.058 2.396 2.396 0 0 0-.626.172.896.896 0 0 0-.363.274.61.61 0 0 0-.117.367.643.643 0 0 0 .334.57c.286.155.61.228.935.21.31.003.617-.054.906-.167.312-.132.606-.304.874-.512l.002-.972ZM94.345 26.03a.089.089 0 0 1-.03.069.282.282 0 0 1-.099.048.936.936 0 0 1-.187.03c-.08.007-.183.01-.308.01-.126 0-.22 0-.3-.01a1.026 1.026 0 0 1-.192-.03.219.219 0 0 1-.097-.048.093.093 0 0 1-.027-.069v-6.76c0-.027.009-.052.027-.072a.205.205 0 0 1 .097-.051 1.18 1.18 0 0 1 .192-.03c.08 0 .18-.01.3-.01s.228 0 .308.01c.063.005.126.014.188.03.036.01.07.027.098.051a.099.099 0 0 1 .03.071v6.761Z"></path><path fill="#4E4C50" d="M71.38 8.629v-.832a8.58 8.58 0 0 0-.055-1.077 3.424 3.424 0 0 0-.549-1.546 2.49 2.49 0 0 0-1.382-1.016 4.495 4.495 0 0 0-1.323-.18h-5.896a.307.307 0 0 0-.218.09.313.313 0 0 0-.09.22v1.329c0 .083.032.162.09.22a.307.307 0 0 0 .218.092h5.184c.235 0 .448.008.646.024.183.003.362.055.519.15a1.2 1.2 0 0 1 .439.513c.078.166.122.347.128.53 0 .27 0 .54.007.81H64.06a4.27 4.27 0 0 0-.966.143 2.48 2.48 0 0 0-1.458 1.018c-.189.29-.331.608-.422.942-.126.46-.194.936-.202 1.413a8.2 8.2 0 0 0 .052 1.172c.049.427.154.845.313 1.244.34.828.973 1.328 1.937 1.528.29.059.585.088.88.087h5.011c.335.002.668-.035.994-.11.236-.042.455-.15.634-.31s.31-.368.38-.599l.013-.04c.044-.12.075-.244.093-.37.034-.26.054-.522.058-.784V8.772l.004-.143Zm-2.844 4.918h-3.79a2.062 2.062 0 0 1-.667-.074.786.786 0 0 1-.483-.45 2.41 2.41 0 0 1-.201-.798 4.17 4.17 0 0 1 .11-1.563.953.953 0 0 1 .323-.535.935.935 0 0 1 .582-.216c.095-.009.189-.01.296-.01H69.1v3.154a.69.69 0 0 1-.058.34.232.232 0 0 1-.189.143c-.105.01-.211.013-.317.01ZM84.867.549V.467a.506.506 0 0 0-.056-.321.116.116 0 0 0-.082-.049c-.14-.021-.546-.032-.976-.035h-.14c-.495 0-.987.011-1.159.035a.114.114 0 0 0-.081.049.505.505 0 0 0-.06.324V15.184a.508.508 0 0 0 .06.326.113.113 0 0 0 .081.047c.325.029.65.04.977.036h.14c.495 0 .987-.011 1.158-.037a.115.115 0 0 0 .082-.047.509.509 0 0 0 .06-.326v-.08L84.866.55ZM59.676 4.416v-.262a7.057 7.057 0 0 0-.23-1.662 3.197 3.197 0 0 0-.665-1.33A3.219 3.219 0 0 0 57.206.19 5.04 5.04 0 0 0 55.75.004h-6.896c-.41-.001-.82.06-1.212.182-.555.172-.913.505-1.062.986a2.605 2.605 0 0 0-.14.772c0 .092-.014.482-.014.583V15.311a.243.243 0 0 0 .08.166c.048.043.11.064.173.06h1.972a.238.238 0 0 0 .172-.06.243.243 0 0 0 .08-.165V9.756a.212.212 0 0 1 .165-.08h6.4c.46.009.917-.024 1.37-.096 1.217-.224 2.044-.894 2.483-2.008a5.976 5.976 0 0 0 .337-1.801c.028-.45.023-.908.018-1.355Zm-2.253.827s-.074.996-.19 1.33a1.77 1.77 0 0 1-1.081 1.117c-.271.095-.558.14-.845.132H48.9l.011-5.374v-.25a.587.587 0 0 1 .164-.213.588.588 0 0 1 .38-.142h5.101c.406 0 .735.013 1.034.032a1.957 1.957 0 0 1 1.37.702c.09.112.162.24.21.376.087.23.15.468.188.712.069.524.089 1.054.06 1.582l.005-.004ZM29.796 5.573a3.782 3.782 0 0 0-2.254-1.708 8.65 8.65 0 0 0-2.002-.285 9.177 9.177 0 0 0-1.956.111c-.436.063-.861.18-1.268.35a3.577 3.577 0 0 0-1.375 1.03c-.35.44-.61.947-.762 1.491a10.007 10.007 0 0 0-.352 2.437c-.037.897.003 1.796.121 2.687.073.658.264 1.296.564 1.884.26.51.653.937 1.136 1.236a3.893 3.893 0 0 0 1.55.538c.3.04 6.32.06 6.339.06.097-.008.193-.021.289-.04a.347.347 0 0 0 .271-.3c.04-.482.035-.968-.016-1.45a.345.345 0 0 0-.175-.232.778.778 0 0 0-.423-.073s-5.137-.012-5.38-.03a1.702 1.702 0 0 1-.912-.31 1.73 1.73 0 0 1-.603-.755c-.096-.2-.16-.414-.189-.633a19.471 19.471 0 0 1-.105-1.08v-.046h5.916c.217-.007.44 0 .665-.02.269-.015.53-.102.753-.254.224-.151.403-.361.519-.607.13-.272.21-.565.237-.866a6.599 6.599 0 0 0-.078-1.749 4.04 4.04 0 0 0-.51-1.386Zm-1.873 2.502-.044.272a.333.333 0 0 1-.13.025h-5.46a4.88 4.88 0 0 1 .24-1.367c.114-.323.308-.61.563-.836.202-.174.445-.295.705-.35a5.17 5.17 0 0 1 1.556-.142c.266.006.53.034.792.082.414.065.803.24 1.127.508.31.28.52.655.594 1.068.05.243.069.492.057.74ZM17.796 2.168a3.495 3.495 0 0 0-.083-.736C17.545.754 17.079.294 16.362.106A3.09 3.09 0 0 0 14.9.085c-.33.065-.633.23-.867.474-.233.23-.424.5-.563.798-.245.578-4.094 10.184-4.094 10.184-.16.395-.317.793-.479 1.19l-.017.04-.055-.132-.422-1.054S4.406 1.589 4.25 1.272a2.103 2.103 0 0 0-.639-.816A2.074 2.074 0 0 0 2.664.05a2.748 2.748 0 0 0-1.648.195 1.694 1.694 0 0 0-.7.585 1.72 1.72 0 0 0-.3.867C.006 1.786 0 14.893 0 14.924a.493.493 0 0 0 .14.332.484.484 0 0 0 .326.146h1.55a.582.582 0 0 0 .456-.16.367.367 0 0 0 .06-.083c.05-.145.07-.299.06-.451 0-.368-.06-11.512-.06-11.512V2.92c.083.197.161.396.239.594 0 0 3.492 8.801 3.944 9.933.183.495.427.965.726 1.4a1.539 1.539 0 0 0 1.025.67c.123.015.248.022.372.02h.255c.507 0 .93-.245 1.257-.71.271-.407.496-.845.669-1.303.317-.792 3.372-8.462 3.372-8.462.282-.711.563-1.414.845-2.12v.098s-.034 10.517-.036 11.67c-.01.154.01.307.059.452.016.03.036.06.06.084a.587.587 0 0 0 .457.16h1.55a.484.484 0 0 0 .326-.147.493.493 0 0 0 .14-.332V3.264c.01-.368.01-.733.004-1.096ZM42.525.684a.487.487 0 0 0-.14-.341.476.476 0 0 0-.339-.141h-1.458a.477.477 0 0 0-.338.14.487.487 0 0 0-.141.342l-.008 3.066s-3.316-.019-3.825.034c-.47.038-.933.146-1.372.32a3.582 3.582 0 0 0-1.15.712A4.16 4.16 0 0 0 32.72 6.49c-.2.598-.32 1.22-.358 1.85-.08.98-.065 1.967.048 2.945.063.592.2 1.174.411 1.73.19.497.483.945.86 1.316a3.69 3.69 0 0 0 1.716.915c.494.125 1 .192 1.51.198h3.662c1.056 0 1.438-.483 1.669-.822.14-.206.29-.854.29-1.76L42.525.684Zm-2.423 11.963a.685.685 0 0 1-.415.63.669.669 0 0 1-.258.052h-2.394a2.707 2.707 0 0 1-1.04-.245 1.602 1.602 0 0 1-.83-.841c-.148-.34-.243-.7-.282-1.068a12.58 12.58 0 0 1-.076-2.286 6.028 6.028 0 0 1 .25-1.626A1.837 1.837 0 0 1 36 6.123c.198-.098.41-.165.628-.198.378-.057 3.474-.036 3.474-.036V12.647ZM94.972 15.341l-.073-.071a2.066 2.066 0 0 0-.134-.124c-1.108-.925-4.843-4.032-5.6-4.66a3.085 3.085 0 0 1-.61-.637.8.8 0 0 1 .081-1.075c.12-.131 2.619-2.243 3.723-3.175l1.33-1.12c.152-.127.304-.255.454-.385.036-.033.163-.184.198-.223a.08.08 0 0 0 .01-.096.113.113 0 0 0-.097-.05h-2.426a.65.65 0 0 0-.44.163c-.336.284-3.727 3.215-4.307 3.712-.264.219-.503.466-.714.737a1.716 1.716 0 0 0-.282 1.698c.146.389.382.737.689 1.015.165.155 4.837 4.04 5.172 4.325a.65.65 0 0 0 .441.162h2.322c.058 0 .117-.01.172-.03a.225.225 0 0 0 .103-.058.08.08 0 0 0-.012-.108ZM80.311 3.975v-.237a1.62 1.62 0 0 0-.063-.67.11.11 0 0 0-.093-.07l-.066-.008a.728.728 0 0 0-.131-.009h-.637a11.944 11.944 0 0 0-1.712.073 6.435 6.435 0 0 0-1.584.373 3.617 3.617 0 0 0-1.265.81 3.662 3.662 0 0 0-.833 1.256 5.615 5.615 0 0 0-.394 1.674c0 .074-.01.143-.014.214-.027.343-.041.653-.043.939v6.935a.78.78 0 0 0 .024.126l.011.046a.106.106 0 0 0 .074.07l.04.01a.32.32 0 0 0 .11.025h1.857a.59.59 0 0 0 .12-.014l.082-.013a.1.1 0 0 0 .092-.088V8.472c-.006-.367.03-.733.108-1.091.02-.113.042-.224.069-.336.071-.3.186-.588.34-.854.236-.422.61-.748 1.058-.921.346-.14.711-.22 1.082-.24.282-.013.564-.02.845-.023l.484-.022h.05a.418.418 0 0 0 .333-.108.098.098 0 0 0 .03-.053c.044-.22.056-.446.038-.67a1.754 1.754 0 0 1-.012-.18Z"></path></svg>