<svg xmlns="http://www.w3.org/2000/svg" id="Layer_2" data-name="Layer 2" viewBox="0 0 280.85 132.38"><defs><style>      .cls-1 {        fill: #0f170d;      }      .cls-1, .cls-2 {        stroke-width: 0px;      }      .cls-2 {        fill: #98ca57;      }    </style></defs><g id="Layer_1-2" data-name="Layer 1"><g><path class="cls-2" d="M145.38,115.3v-.36c0-4.61,3.74-8.35,8.35-8.35,2.57,0,4.94,1.13,6.55,3.14l-2.21,1.75c-1.06-1.32-2.64-2.09-4.34-2.09-3.05,0-5.54,2.47-5.54,5.54v.36c0,3.05,2.5,5.54,5.54,5.54,1.7,0,3.31-.79,4.37-2.11v-2.18h-2.98v-2.81h5.78v5.88c-1.7,2.52-4.03,4.03-7.18,4.03-4.61,0-8.35-3.74-8.35-8.35Z"></path><path class="cls-2" d="M162.1,115.3v-.36c0-4.61,3.74-8.35,8.35-8.35s8.38,3.74,8.38,8.35v.36c0,4.61-3.77,8.35-8.38,8.35s-8.35-3.74-8.35-8.35ZM176.02,115.3v-.36c0-3.07-2.5-5.54-5.57-5.54s-5.54,2.47-5.54,5.54v.36c0,3.05,2.5,5.54,5.54,5.54s5.57-2.5,5.57-5.54Z"></path><path class="cls-2" d="M179.97,106.95h3.19l5.74,10.49,5.71-10.49h3.19l-8.9,16.35-8.93-16.35Z"></path><path class="cls-2" d="M198.12,123.27v-16.32h2.81v16.32h-2.81Z"></path><path class="cls-2" d="M203.54,123.27v-16.32h11.81v2.83h-9v3.98h7.1v2.71h-7.1v3.98h9v2.81h-11.81Z"></path><path class="cls-2" d="M222.98,123.27v-13.49h-6.17v-2.83h15.17v2.83h-6.17v13.49h-2.83Z"></path><path class="cls-2" d="M244.7,123.27c-.65,0-1.25-.31-1.61-.84l-7.13-10.49v11.33h-2.81v-16.32h1.78c.65,0,1.25.34,1.61.86l7.13,10.44v-11.3h2.81v16.32h-1.78Z"></path><path class="cls-2" d="M260.11,123.27l-1.18-2.4h-7.7l-1.22,2.4h-3.14l8.26-16.37,8.14,16.37h-3.14ZM255.09,113.19l-2.45,4.87h4.87l-2.42-4.87Z"></path><path class="cls-2" d="M278.01,123.27v-10.44l-5.81,10.44-5.81-10.44v10.44h-2.81v-16.32h2.02c.48,0,.96.29,1.2.72l5.4,9.72,5.42-9.72c.24-.43.7-.72,1.2-.72h1.99v16.32h-2.81Z"></path></g><g><g><path class="cls-1" d="M127.68,50.64v6.77h-11.92c-1.76,0-3.42.28-4.98.85-1.56.57-2.94,1.41-4.13,2.54-1.2,1.13-2.18,2.54-2.95,4.23-.77,1.69-1.24,3.67-1.42,5.93h22.76v6.77h-22.76c.18,2.26.65,4.23,1.42,5.93.77,1.69,1.75,3.11,2.95,4.23,1.2,1.13,2.57,1.98,4.13,2.54,1.56.57,3.22.85,4.98.85h11.92v6.77h-12.13c-3.16,0-6.01-.55-8.54-1.66-2.53-1.11-4.66-2.7-6.4-4.78-1.74-2.08-3.08-4.57-4.03-7.49-.95-2.91-1.42-6.18-1.42-9.79s.47-6.88,1.42-9.79,2.29-5.41,4.03-7.49c1.74-2.08,3.87-3.67,6.4-4.78,2.53-1.11,5.37-1.66,8.54-1.66h12.13Z"></path><path class="cls-1" d="M133.3,69.48c0-2.98.36-5.71,1.08-8.2.72-2.48,1.85-4.61,3.39-6.37,1.53-1.76,3.49-3.13,5.86-4.1,2.37-.97,5.23-1.46,8.57-1.46s6.14.49,8.54,1.46c2.39.97,4.36,2.34,5.89,4.1,1.53,1.76,2.66,3.88,3.39,6.37.72,2.48,1.08,5.22,1.08,8.2v28.59h-6.77v-20.19h-24.25v20.19h-6.77v-28.59ZM164.33,71.1c0-.23-.01-.48-.03-.78-.02-.29-.06-.53-.1-.71-.05-2.66-.32-4.87-.81-6.61-.5-1.74-1.23-3.13-2.2-4.17-.97-1.04-2.2-1.75-3.69-2.13-1.49-.38-3.25-.58-5.28-.58s-3.79.2-5.28.61c-1.49.41-2.72,1.12-3.69,2.13-.97,1.02-1.71,2.4-2.2,4.17-.5,1.76-.79,3.97-.88,6.64,0,.18-.01.41-.03.68-.02.27-.03.52-.03.75h24.25Z"></path><path class="cls-1" d="M207.48,98.07h-13.35c-2.35,0-4.54-.37-6.57-1.12s-3.78-1.78-5.25-3.12c-1.47-1.33-2.62-2.95-3.45-4.84-.84-1.9-1.25-4.02-1.25-6.37v-31.97h6.77v30.48c0,1.63.23,3.06.68,4.3.45,1.24,1.11,2.3,1.96,3.18.86.88,1.87,1.55,3.05,2,1.17.45,2.44.68,3.79.68h13.62v6.77Z"></path><path class="cls-1" d="M213.24,98v-40.58h-17.21v-6.77h41.26v6.77h-17.27v40.58h-6.77Z"></path><path class="cls-1" d="M274.07,98.07v-20.46h-23.98v20.46h-6.77v-47.35h6.77v20.12h23.98v-20.19h6.77v47.42h-6.77Z"></path></g><path class="cls-2" d="M53.78,43.27c-.24,4.75-.75,9.34-1.87,13.85-.69,2.76-1.58,5.46-2.52,8.14-.51,1.47-.5,1.58,1.08,1.77,3.03.37,6.03.82,8.99,1.55.81.2,1.19-.15,1.42-.89,1.03-3.25,2.27-6.43,3.54-9.61,3.92-9.82,8.72-19.15,15.02-27.67,1.53-2.06,3.17-4.02,4.81-5.99,1.82-2.18,4.74-2.5,6.71-.8,1.91,1.65,2.1,4.75.33,6.81-7.59,8.87-13.03,19.01-17.55,29.69-1.44,3.41-2.77,6.85-3.92,10.37-.36,1.11-.09,1.61.98,2.13,9,4.36,16.38,10.51,20.55,19.81,4.21,9.39,4.65,18.95.06,28.38-2.6,5.35-6.71,9.16-12.5,10.89-7.23,2.16-15.44-1.02-19.83-7.55-3.28-4.88-4.53-10.37-4.87-16.13-.63-10.71,1.08-21.13,3.9-31.41.43-1.56.34-1.64-1.23-2.07-3.17-.86-6.42-.92-9.66-1.16-1.1-.08-1.67.37-2.18,1.33-3.32,6.33-7.22,12.27-12.3,17.34-4.46,4.45-9.46,8.1-15.76,9.52-3.43.77-6.86.83-10.17-.6-6.38-2.75-8.64-9.79-5.26-16.17,2.35-4.43,6.01-7.52,10.17-10.1,7.2-4.46,15.18-6.55,23.48-7.5,2.33-.27,3.72-.87,4.58-3.29,1.55-4.33,3.05-8.65,3.84-13.19.21-1.23-.06-1.98-1.16-2.72-7.94-5.36-14.73-11.9-19.81-20.07-3.24-5.21-5.09-10.85-4.84-17.09.22-5.4,3.59-9.82,8.48-10.65,3.04-.52,6,0,8.74,1.47,6.1,3.27,10.36,8.28,13.43,14.38,3.25,6.45,4.75,13.35,5.18,20.52.13,2.2.18,4.38.12,6.69M84.22,114.4c2.69-6.35,2.61-12.78.08-19.08-2.95-7.37-8.52-12.43-15.3-16.28-1.4-.79-1.71-.66-2.1.88-.85,3.34-1.66,6.69-2.2,10.1-1.04,6.67-1.81,13.35-.83,20.1.5,3.4,1.35,6.68,3.53,9.47,3.12,3.99,8.14,4.58,12.05,1.41,2.13-1.73,3.63-3.92,4.76-6.6M26.84,18.92c3.31,9.26,9.53,16.21,17.11,22.16.61-.65.49-1.16.49-1.63,0-3.88-.54-7.69-1.52-11.43-1.54-5.86-3.97-11.26-8.55-15.46-1.32-1.21-2.71-2.36-4.44-2.94-1.98-.66-3.46.26-3.9,2.29-.51,2.37.19,4.59.8,7.01M30.92,75.26c-4.7,1.35-9.22,3.13-13.43,5.64-3.15,1.89-5.85,4.26-7.56,7.56-1.39,2.67-.28,4.45,2.7,4.34,3.69-.14,6.81-1.8,9.62-4,4.56-3.57,8.07-8.09,11.23-12.89.21-.32.52-.65.3-1.16-.95-.25-1.78.3-2.86.52Z"></path></g></g></svg>